<?xml version="1.0" encoding="utf-8"?>
<!-- Generator: Adobe Illustrator 25.3.1, SVG Export Plug-In . SVG Version: 6.00 Build 0)  -->
<svg version="1.1" id="Слой_1" xmlns="http://www.w3.org/2000/svg" xmlns:xlink="http://www.w3.org/1999/xlink" x="0px" y="0px"
	 viewBox="0 0 60 50" style="enable-background:new 0 0 60 50;" xml:space="preserve">
<style type="text/css">
	.st0{fill:url(#SVGID_1_);stroke:#050505;stroke-miterlimit:10;}
	.st1{fill:url(#SVGID_2_);stroke:#050505;stroke-miterlimit:10;}
	.st2{fill:url(#SVGID_3_);stroke:#050505;stroke-miterlimit:10;}
	.st3{fill:url(#SVGID_4_);stroke:#050505;stroke-miterlimit:10;}
</style>
<linearGradient id="SVGID_1_" gradientUnits="userSpaceOnUse" x1="17.1918" y1="26.6437" x2="45.0918" y2="26.6437" gradientTransform="matrix(1 0 0 -1 0 52)">
	<stop  offset="3.516341e-07" style="stop-color:#BF9A00"/>
	<stop  offset="0.3476" style="stop-color:#E2E900"/>
	<stop  offset="0.87" style="stop-color:#E9BD00"/>
	<stop  offset="1" style="stop-color:#FFAB15"/>
</linearGradient>
<path class="st0" d="M45.1,25.3c0,11.8-8.3,21.3-18.5,21.3c-2.8,0-5.4-0.7-7.8-2c1.9-0.5,4.6-1.6,7.3-3.6c0.8-0.6,8.5-6.5,8.9-14.6
	c0.3-8.1-6.8-16.6-17.8-19.3c2.8-1.9,6-2.9,9.4-2.9C36.8,4.1,45.1,13.6,45.1,25.3z"/>
<linearGradient id="SVGID_2_" gradientUnits="userSpaceOnUse" x1="5.8095" y1="35.1933" x2="12.9512" y2="35.1933" gradientTransform="matrix(1 0 0 -1 0 52)">
	<stop  offset="3.516341e-07" style="stop-color:#BF9A00"/>
	<stop  offset="0.3476" style="stop-color:#E2E900"/>
	<stop  offset="0.87" style="stop-color:#E9BD00"/>
	<stop  offset="1" style="stop-color:#FFAB15"/>
</linearGradient>
<polygon class="st1" points="10.9,20.4 8.9,18.9 6.5,19.7 7.3,17.3 5.8,15.3 8.3,15.3 9.8,13.3 10.6,15.7 13,16.5 10.9,17.9 "/>
<linearGradient id="SVGID_3_" gradientUnits="userSpaceOnUse" x1="17.1403" y1="24.1433" x2="25.1752" y2="24.1433" gradientTransform="matrix(1 0 0 -1 0 52)">
	<stop  offset="3.516341e-07" style="stop-color:#BF9A00"/>
	<stop  offset="0.3476" style="stop-color:#E2E900"/>
	<stop  offset="0.87" style="stop-color:#E9BD00"/>
	<stop  offset="1" style="stop-color:#FFAB15"/>
</linearGradient>
<polygon class="st2" points="22.2,32.1 20.1,30 17.3,30.6 18.6,28 17.1,25.4 20,25.8 22.1,23.7 22.5,26.6 25.2,27.8 22.6,29.2 "/>
<linearGradient id="SVGID_4_" gradientUnits="userSpaceOnUse" x1="47.5488" y1="37.1433" x2="54.0826" y2="37.1433" gradientTransform="matrix(1 0 0 -1 0 52)">
	<stop  offset="3.516341e-07" style="stop-color:#BF9A00"/>
	<stop  offset="0.3476" style="stop-color:#E2E900"/>
	<stop  offset="0.87" style="stop-color:#E9BD00"/>
	<stop  offset="1" style="stop-color:#FFAB15"/>
</linearGradient>
<polygon class="st3" points="53.1,17.8 51,16.9 49.1,18.1 49.3,15.8 47.6,14.3 49.8,13.8 50.7,11.7 51.8,13.7 54.1,13.9 52.6,15.6 
	"/>
</svg>
