<?xml version="1.0" encoding="utf-8"?>
<!-- Generator: Adobe Illustrator 25.3.1, SVG Export Plug-In . SVG Version: 6.00 Build 0)  -->
<svg version="1.1" id="Слой_1" xmlns="http://www.w3.org/2000/svg" xmlns:xlink="http://www.w3.org/1999/xlink" x="0px" y="0px"
	 viewBox="0 0 60 50" style="enable-background:new 0 0 60 50;" xml:space="preserve">
<style type="text/css">
	.st0{fill:url(#SVGID_1_);stroke:#000000;stroke-width:0.1;stroke-miterlimit:10;}
	.st1{fill:url(#SVGID_2_);stroke:#000000;stroke-width:0.1;stroke-miterlimit:10;}
	.st2{fill:url(#SVGID_3_);stroke:#000000;stroke-width:0.1;stroke-miterlimit:10;}
	.st3{fill:url(#SVGID_4_);stroke:#000000;stroke-width:0.25;stroke-miterlimit:10;}
	.st4{fill:url(#SVGID_5_);stroke:#000000;stroke-width:0.25;stroke-miterlimit:10;}
	.st5{fill:url(#SVGID_6_);stroke:#000000;stroke-width:0.25;stroke-miterlimit:10;}
	.st6{fill:url(#SVGID_7_);stroke:#000000;stroke-width:0.25;stroke-miterlimit:10;}
	.st7{fill:url(#SVGID_8_);stroke:#000000;stroke-width:0.25;stroke-miterlimit:10;}
	.st8{fill:url(#SVGID_9_);stroke:#000000;stroke-width:0.25;stroke-miterlimit:10;}
	.st9{fill:url(#SVGID_10_);stroke:#000000;stroke-width:0.25;stroke-miterlimit:10;}
	.st10{fill:url(#SVGID_11_);stroke:#000000;stroke-width:0.25;stroke-miterlimit:10;}
	.st11{fill:url(#SVGID_12_);stroke:#000000;stroke-width:0.25;stroke-miterlimit:10;}
	.st12{fill:url(#SVGID_13_);stroke:#000000;stroke-width:0.25;stroke-miterlimit:10;}
	.st13{fill:url(#SVGID_14_);stroke:#000000;stroke-width:0.25;stroke-miterlimit:10;}
	.st14{fill:url(#SVGID_15_);stroke:#000000;stroke-width:0.25;stroke-miterlimit:10;}
	.st15{fill:url(#SVGID_16_);stroke:#000000;stroke-width:0.25;stroke-miterlimit:10;}
	.st16{fill:url(#SVGID_17_);stroke:#000000;stroke-width:0.25;stroke-miterlimit:10;}
	.st17{fill:url(#SVGID_18_);stroke:#000000;stroke-width:0.25;stroke-miterlimit:10;}
</style>
<linearGradient id="SVGID_1_" gradientUnits="userSpaceOnUse" x1="33.1674" y1="37.1895" x2="0.9693" y2="37.5544" gradientTransform="matrix(1 0 0 -1 0 54)">
	<stop  offset="0" style="stop-color:#00A99D"/>
	<stop  offset="0.3476" style="stop-color:#0B6A85"/>
	<stop  offset="0.6435" style="stop-color:#143B73"/>
	<stop  offset="0.87" style="stop-color:#191F68"/>
	<stop  offset="1" style="stop-color:#1B1464"/>
</linearGradient>
<path class="st0" d="M0.1,24.7c-0.5-1.6,0.9-3.8,1.2-4.2c1-1.6,1.5-1.2,2.4-2.5c1.3-2,0.6-3.3,1.8-5.1c1.3-2,3.1-2.4,3.6-2.5
	c1.9-0.4,2.2,0.7,3.6,0c1.5-0.7,1.3-2.1,3-3.4c1.7-1.3,3.4-1,4.2-0.8c0.4,0.1,2.1,0.6,3.6,2.5c1.4,1.9,1,2.9,2.4,5.1
	c1,1.5,1.6,1.5,2.5,2.3c0,0,0.5,0.3,1.1,1.1c1.3,1.4,3.7,7.1,2.4,9.3c-0.4,0.6-0.9,0.8-6.6,0c-4.4-0.7-4.4-0.8-6-0.8
	c-2.5,0.1-2.7,0.6-6,0.8c-2.9,0.2-2.4-0.3-4.8,0c-2.9,0.3-4.4,1-6.6,0C0.6,25.8,0.2,25.2,0.1,24.7z"/>
<linearGradient id="SVGID_2_" gradientUnits="userSpaceOnUse" x1="30.1829" y1="36.3432" x2="62.3811" y2="35.9596" gradientTransform="matrix(1 0 0 -1 0 54)">
	<stop  offset="0" style="stop-color:#00A99D"/>
	<stop  offset="0.3476" style="stop-color:#0B6A85"/>
	<stop  offset="0.6435" style="stop-color:#143B73"/>
	<stop  offset="0.87" style="stop-color:#191F68"/>
	<stop  offset="1" style="stop-color:#1B1464"/>
</linearGradient>
<path class="st1" d="M27.9,25.9c-0.5-1.6,0.9-3.8,1.2-4.2c1-1.6,1.5-1.2,2.4-2.5c1.3-1.9,0.6-3.2,1.8-5.1c1.3-2,3.1-2.4,3.6-2.5
	c1.9-0.4,2.2,0.7,3.6,0c1.5-0.7,1.3-2.1,3-3.4c1.7-1.3,3.4-1,4.2-0.8C48,7.5,49.7,8,51.2,9.9c1.4,1.9,1,2.9,2.4,5.1
	c1,1.5,1.6,1.5,2.5,2.3c0,0,0.5,0.3,1.1,1.1c1.3,1.4,3.7,7.1,2.4,9.3c-0.4,0.6-0.9,0.8-6.6,0c-4.4-0.7-4.4-0.8-6-0.8
	c-2.5,0.1-2.7,0.6-6,0.8c-2.9,0.2-2.4-0.3-4.8,0c-2.9,0.3-4.4,1-6.6,0C28.3,27,28,26.4,27.9,25.9z"/>
<linearGradient id="SVGID_3_" gradientUnits="userSpaceOnUse" x1="37.4156" y1="52.7897" x2="24.4705" y2="13.4686" gradientTransform="matrix(1 0 0 -1 0 54)">
	<stop  offset="0" style="stop-color:#00A99D"/>
	<stop  offset="0.3476" style="stop-color:#0B6A85"/>
	<stop  offset="0.6435" style="stop-color:#143B73"/>
	<stop  offset="0.87" style="stop-color:#191F68"/>
	<stop  offset="1" style="stop-color:#1B1464"/>
</linearGradient>
<path class="st2" d="M12.9,27.3c-0.5-1.6,0.9-3.8,1.2-4.2c1-1.6,1.5-1.2,2.4-2.5c1.3-1.9,0.6-3.2,1.8-5.1c1.3-2,3.1-2.4,3.6-2.5
	c1.9-0.4,2.2,0.7,3.6,0c1.5-0.7,1.3-2.1,3-3.4c1.7-1.3,3.4-1,4.2-0.8c0.4,0.1,2.1,0.6,3.6,2.5c1.4,1.9,1,2.9,2.4,5.1
	c1,1.5,1.6,1.5,2.5,2.3c0,0,0.5,0.3,1.1,1.1c1.3,1.4,3.7,7.1,2.4,9.3c-0.4,0.6-0.9,0.8-6.6,0c-4.4-0.7-4.4-0.8-6-0.8
	c-2.5,0.1-2.7,0.6-6,0.8c-2.9,0.2-2.4-0.3-4.8,0c-2.9,0.3-4.4,1-6.6,0C13.4,28.4,13,27.7,12.9,27.3z"/>
<linearGradient id="SVGID_4_" gradientUnits="userSpaceOnUse" x1="31.9071" y1="26.9322" x2="28.1442" y2="15.5024" gradientTransform="matrix(0.585 -6.588418e-03 -8.681628e-03 -0.7708 16.3612 51.5122)">
	<stop  offset="0" style="stop-color:#00A99D"/>
	<stop  offset="0.3476" style="stop-color:#003499"/>
	<stop  offset="0.6435" style="stop-color:#00F4FF"/>
	<stop  offset="0.87" style="stop-color:#191F68"/>
	<stop  offset="1" style="stop-color:#1B1464"/>
</linearGradient>
<path class="st3" d="M35.3,35.6c0,1.2-0.7,2.2-1.7,2.2c-0.9,0-1.7-1-1.7-2.2c0-0.3,0.1-0.7,0.4-1.5c0.6-1.4,0.8-2.1,1.2-2.1
	c0.3,0,0.6,0.7,1.2,2.1C35.3,35.2,35.3,35.4,35.3,35.6z"/>
<linearGradient id="SVGID_5_" gradientUnits="userSpaceOnUse" x1="21.8381" y1="27.0231" x2="18.0753" y2="15.5932" gradientTransform="matrix(0.585 -6.588418e-03 -8.681628e-03 -0.7708 16.3612 51.5122)">
	<stop  offset="0" style="stop-color:#00A99D"/>
	<stop  offset="0.3476" style="stop-color:#003499"/>
	<stop  offset="0.6435" style="stop-color:#00F4FF"/>
	<stop  offset="0.87" style="stop-color:#191F68"/>
	<stop  offset="1" style="stop-color:#1B1464"/>
</linearGradient>
<path class="st4" d="M29.4,35.6c0,1.2-0.7,2.2-1.7,2.2c-0.9,0-1.7-1-1.7-2.2c0-0.3,0.1-0.7,0.4-1.5c0.6-1.4,0.8-2.1,1.2-2.1
	c0.3,0,0.6,0.7,1.2,2.1C29.4,35.2,29.4,35.4,29.4,35.6z"/>
<linearGradient id="SVGID_6_" gradientUnits="userSpaceOnUse" x1="10.2045" y1="27.4455" x2="6.4417" y2="16.0156" gradientTransform="matrix(0.5836 -6.572672e-03 -8.681628e-03 -0.7708 16.3788 51.512)">
	<stop  offset="0" style="stop-color:#00A99D"/>
	<stop  offset="0.3476" style="stop-color:#003499"/>
	<stop  offset="0.6435" style="stop-color:#00F4FF"/>
	<stop  offset="0.87" style="stop-color:#191F68"/>
	<stop  offset="1" style="stop-color:#1B1464"/>
</linearGradient>
<path class="st5" d="M22.6,35.3c0,1.2-0.7,2.2-1.7,2.2c-0.9,0-1.7-1-1.7-2.2c0-0.3,0.1-0.7,0.4-1.5c0.6-1.4,0.8-2.1,1.2-2.1
	c0.3,0,0.6,0.7,1.2,2.1C22.6,35,22.6,35.2,22.6,35.3z"/>
<linearGradient id="SVGID_7_" gradientUnits="userSpaceOnUse" x1="-0.7293" y1="25.6178" x2="-4.4921" y2="14.1879" gradientTransform="matrix(0.585 -6.588418e-03 -8.681628e-03 -0.7708 16.3612 51.5122)">
	<stop  offset="0" style="stop-color:#00A99D"/>
	<stop  offset="0.3476" style="stop-color:#003499"/>
	<stop  offset="0.6435" style="stop-color:#00F4FF"/>
	<stop  offset="0.87" style="stop-color:#191F68"/>
	<stop  offset="1" style="stop-color:#1B1464"/>
</linearGradient>
<path class="st6" d="M16.2,36.8c0,1.2-0.7,2.2-1.7,2.2c-0.9,0-1.7-1-1.7-2.2c0-0.3,0.1-0.7,0.4-1.5c0.6-1.4,0.8-2.1,1.2-2.1
	c0.3,0,0.6,0.7,1.2,2.1C16.1,36.4,16.2,36.6,16.2,36.8z"/>
<linearGradient id="SVGID_8_" gradientUnits="userSpaceOnUse" x1="-10.4039" y1="29.459" x2="-14.1667" y2="18.0293" gradientTransform="matrix(0.585 -6.588418e-03 -8.681628e-03 -0.7708 16.3612 51.5122)">
	<stop  offset="0" style="stop-color:#00A99D"/>
	<stop  offset="0.3476" style="stop-color:#003499"/>
	<stop  offset="0.6435" style="stop-color:#00F4FF"/>
	<stop  offset="0.87" style="stop-color:#191F68"/>
	<stop  offset="1" style="stop-color:#1B1464"/>
</linearGradient>
<path class="st7" d="M10.5,33.9c0,1.2-0.7,2.2-1.7,2.2c-0.9,0-1.7-1-1.7-2.2c0-0.3,0.1-0.7,0.4-1.5c0.6-1.4,0.8-2.1,1.2-2.1
	c0.3,0,0.6,0.7,1.2,2.1C10.5,33.5,10.5,33.8,10.5,33.9z"/>
<linearGradient id="SVGID_9_" gradientUnits="userSpaceOnUse" x1="49.4927" y1="26.7966" x2="45.7298" y2="15.3668" gradientTransform="matrix(0.585 -6.588418e-03 -8.681628e-03 -0.7708 16.3612 51.5122)">
	<stop  offset="0" style="stop-color:#00A99D"/>
	<stop  offset="0.3476" style="stop-color:#003499"/>
	<stop  offset="0.6435" style="stop-color:#00F4FF"/>
	<stop  offset="0.87" style="stop-color:#191F68"/>
	<stop  offset="1" style="stop-color:#1B1464"/>
</linearGradient>
<path class="st8" d="M45.5,35.6c0,1.2-0.7,2.2-1.7,2.2c-0.9,0-1.7-1-1.7-2.2c0-0.3,0.1-0.7,0.4-1.5c0.6-1.4,0.8-2.1,1.2-2.1
	c0.3,0,0.6,0.7,1.2,2.1C45.5,35.2,45.5,35.4,45.5,35.6z"/>
<linearGradient id="SVGID_10_" gradientUnits="userSpaceOnUse" x1="40.9387" y1="27.1814" x2="37.1757" y2="15.7515" gradientTransform="matrix(0.585 -6.588418e-03 -8.681628e-03 -0.7708 16.3612 51.5122)">
	<stop  offset="0" style="stop-color:#00A99D"/>
	<stop  offset="0.3476" style="stop-color:#003499"/>
	<stop  offset="0.6435" style="stop-color:#00F4FF"/>
	<stop  offset="0.87" style="stop-color:#191F68"/>
	<stop  offset="1" style="stop-color:#1B1464"/>
</linearGradient>
<path class="st9" d="M40.6,35.3c0,1.2-0.7,2.2-1.7,2.2c-0.9,0-1.7-1-1.7-2.2c0-0.3,0.1-0.7,0.4-1.5c0.6-1.4,0.8-2.1,1.2-2.1
	c0.3,0,0.6,0.7,1.2,2.1C40.6,35,40.6,35.2,40.6,35.3z"/>
<linearGradient id="SVGID_11_" gradientUnits="userSpaceOnUse" x1="58.0457" y1="29.2576" x2="54.2828" y2="17.8279" gradientTransform="matrix(0.585 -6.588418e-03 -8.681628e-03 -0.7708 16.3612 51.5122)">
	<stop  offset="0" style="stop-color:#00A99D"/>
	<stop  offset="0.3476" style="stop-color:#003499"/>
	<stop  offset="0.6435" style="stop-color:#00F4FF"/>
	<stop  offset="0.87" style="stop-color:#191F68"/>
	<stop  offset="1" style="stop-color:#1B1464"/>
</linearGradient>
<path class="st10" d="M50.5,33.6c0,1.2-0.7,2.2-1.7,2.2c-0.9,0-1.7-1-1.7-2.2c0-0.3,0.1-0.7,0.4-1.5c0.6-1.4,0.8-2.1,1.2-2.1
	c0.3,0,0.6,0.7,1.2,2.1C50.5,33.3,50.5,33.5,50.5,33.6z"/>
<linearGradient id="SVGID_12_" gradientUnits="userSpaceOnUse" x1="6.0071" y1="18.0981" x2="2.2442" y2="6.6682" gradientTransform="matrix(0.585 -6.588418e-03 -8.681628e-03 -0.7708 16.3612 51.5122)">
	<stop  offset="0" style="stop-color:#00A99D"/>
	<stop  offset="0.3476" style="stop-color:#003499"/>
	<stop  offset="0.6435" style="stop-color:#00F4FF"/>
	<stop  offset="0.87" style="stop-color:#191F68"/>
	<stop  offset="1" style="stop-color:#1B1464"/>
</linearGradient>
<path class="st11" d="M20.2,42.6c0,1.2-0.7,2.2-1.7,2.2c-0.9,0-1.7-1-1.7-2.2c0-0.3,0.1-0.7,0.4-1.5c0.6-1.4,0.8-2.1,1.2-2.1
	c0.3,0,0.6,0.7,1.2,2.1C20.2,42.2,20.2,42.4,20.2,42.6z"/>
<linearGradient id="SVGID_13_" gradientUnits="userSpaceOnUse" x1="16.4164" y1="18.0009" x2="12.6534" y2="6.5712" gradientTransform="matrix(0.585 -6.588418e-03 -8.681628e-03 -0.7708 16.3612 51.5122)">
	<stop  offset="0" style="stop-color:#00A99D"/>
	<stop  offset="0.3476" style="stop-color:#003499"/>
	<stop  offset="0.6435" style="stop-color:#00F4FF"/>
	<stop  offset="0.87" style="stop-color:#191F68"/>
	<stop  offset="1" style="stop-color:#1B1464"/>
</linearGradient>
<path class="st12" d="M26.3,42.6c0,1.2-0.7,2.2-1.7,2.2c-0.9,0-1.7-1-1.7-2.2c0-0.3,0.1-0.7,0.4-1.5c0.6-1.4,0.8-2.1,1.2-2.1
	c0.3,0,0.6,0.7,1.2,2.1C26.3,42.2,26.3,42.4,26.3,42.6z"/>
<linearGradient id="SVGID_14_" gradientUnits="userSpaceOnUse" x1="26.6584" y1="19.1547" x2="22.8955" y2="7.7248" gradientTransform="matrix(0.585 -6.588418e-03 -8.681628e-03 -0.7708 16.3612 51.5122)">
	<stop  offset="0" style="stop-color:#00A99D"/>
	<stop  offset="0.3476" style="stop-color:#003499"/>
	<stop  offset="0.6435" style="stop-color:#00F4FF"/>
	<stop  offset="0.87" style="stop-color:#191F68"/>
	<stop  offset="1" style="stop-color:#1B1464"/>
</linearGradient>
<path class="st13" d="M32.3,41.6c0,1.2-0.7,2.2-1.7,2.2c-0.9,0-1.7-1-1.7-2.2c0-0.3,0.1-0.7,0.4-1.5c0.6-1.4,0.8-2.1,1.2-2.1
	c0.3,0,0.6,0.7,1.2,2.1C32.3,41.3,32.3,41.5,32.3,41.6z"/>
<linearGradient id="SVGID_15_" gradientUnits="userSpaceOnUse" x1="37.578" y1="19.0481" x2="33.8152" y2="7.6182" gradientTransform="matrix(0.585 -6.588418e-03 -8.681628e-03 -0.7708 16.3612 51.5122)">
	<stop  offset="0" style="stop-color:#00A99D"/>
	<stop  offset="0.3476" style="stop-color:#003499"/>
	<stop  offset="0.6435" style="stop-color:#00F4FF"/>
	<stop  offset="0.87" style="stop-color:#191F68"/>
	<stop  offset="1" style="stop-color:#1B1464"/>
</linearGradient>
<path class="st14" d="M38.7,41.6c0,1.2-0.7,2.2-1.7,2.2c-0.9,0-1.7-1-1.7-2.2c0-0.3,0.1-0.7,0.4-1.5c0.6-1.4,0.8-2.1,1.2-2.1
	c0.3,0,0.6,0.7,1.2,2.1C38.7,41.3,38.7,41.5,38.7,41.6z"/>
<linearGradient id="SVGID_16_" gradientUnits="userSpaceOnUse" x1="46.6253" y1="17.7347" x2="42.8625" y2="6.3048" gradientTransform="matrix(0.585 -6.588418e-03 -8.681628e-03 -0.7708 16.3612 51.5122)">
	<stop  offset="0" style="stop-color:#00A99D"/>
	<stop  offset="0.3476" style="stop-color:#003499"/>
	<stop  offset="0.6435" style="stop-color:#00F4FF"/>
	<stop  offset="0.87" style="stop-color:#191F68"/>
	<stop  offset="1" style="stop-color:#1B1464"/>
</linearGradient>
<path class="st15" d="M43.9,42.6c0,1.2-0.7,2.2-1.7,2.2c-0.9,0-1.7-1-1.7-2.2c0-0.3,0.1-0.7,0.4-1.5c0.6-1.4,0.8-2.1,1.2-2.1
	c0.3,0,0.6,0.7,1.2,2.1C43.9,42.2,43.9,42.4,43.9,42.6z"/>
<linearGradient id="SVGID_17_" gradientUnits="userSpaceOnUse" x1="56.0299" y1="20.3067" x2="52.267" y2="8.8769" gradientTransform="matrix(0.585 -6.588418e-03 -8.681628e-03 -0.7708 16.3612 51.5122)">
	<stop  offset="0" style="stop-color:#00A99D"/>
	<stop  offset="0.3476" style="stop-color:#003499"/>
	<stop  offset="0.6435" style="stop-color:#00F4FF"/>
	<stop  offset="0.87" style="stop-color:#191F68"/>
	<stop  offset="1" style="stop-color:#1B1464"/>
</linearGradient>
<path class="st16" d="M49.4,40.5c0,1.2-0.7,2.2-1.7,2.2c-0.9,0-1.7-1-1.7-2.2c0-0.3,0.1-0.7,0.4-1.5c0.6-1.4,0.8-2.1,1.2-2.1
	c0.3,0,0.6,0.7,1.2,2.1C49.3,40.2,49.4,40.4,49.4,40.5z"/>
<linearGradient id="SVGID_18_" gradientUnits="userSpaceOnUse" x1="-6.6178" y1="20.0824" x2="-10.3806" y2="8.6526" gradientTransform="matrix(0.585 -6.588418e-03 -8.681628e-03 -0.7708 16.3612 51.5122)">
	<stop  offset="0" style="stop-color:#00A99D"/>
	<stop  offset="0.3476" style="stop-color:#003499"/>
	<stop  offset="0.6435" style="stop-color:#00F4FF"/>
	<stop  offset="0.87" style="stop-color:#191F68"/>
	<stop  offset="1" style="stop-color:#1B1464"/>
</linearGradient>
<path class="st17" d="M12.8,41.1c0,1.2-0.7,2.2-1.7,2.2c-0.9,0-1.7-1-1.7-2.2c0-0.3,0.1-0.7,0.4-1.5c0.6-1.4,0.8-2.1,1.2-2.1
	c0.3,0,0.6,0.7,1.2,2.1C12.7,40.7,12.8,41,12.8,41.1z"/>
</svg>
