<?xml version="1.0" encoding="utf-8"?>
<!-- Generator: Adobe Illustrator 25.3.1, SVG Export Plug-In . SVG Version: 6.00 Build 0)  -->
<svg version="1.1" id="Слой_1" xmlns="http://www.w3.org/2000/svg" xmlns:xlink="http://www.w3.org/1999/xlink" x="0px" y="0px"
	 viewBox="0 0 100 50" style="enable-background:new 0 0 100 50;" xml:space="preserve">
<style type="text/css">
	.st0{fill:url(#SVGID_1_);stroke:#000000;stroke-width:0.25;stroke-miterlimit:10;}
	.st1{fill:#FFFFFF;stroke:#000000;stroke-width:0.25;stroke-miterlimit:10;}
</style>
<linearGradient id="SVGID_1_" gradientUnits="userSpaceOnUse" x1="11" y1="27.2936" x2="87.3951" y2="27.2936" gradientTransform="matrix(1 0 0 -1 0 52)">
	<stop  offset="2.131116e-07" style="stop-color:#00FFFF"/>
	<stop  offset="0.3476" style="stop-color:#00A99D"/>
	<stop  offset="0.6435" style="stop-color:#29ABE2"/>
	<stop  offset="0.87" style="stop-color:#00A99D"/>
	<stop  offset="1" style="stop-color:#2E3192"/>
</linearGradient>
<path class="st0" d="M16.9,13c0.5,2.2,0.9,4.4,1.4,6.7l8.8-1.1l1.4,1.1l-8.8,1.1l1.4,2.2l13.2-2.2L40,23h-7l-4.3,2.2l3.6,1.1h6.7
	L33,28.5l-13.2-2.2l-2.9,2.2l10.3,2.2l-3,1.2l-7.4-2.2L11,36.3l13.2,2.2l2.9-5.5H30l-4.2,5.5h-0.3l4.3,1.1l4.3-8.9l5.9-1.1L36,33
	v3.3l7.4-2.2l2.9-3.3v4.4l-11.7,5.5l2.9,2.2l8.8-5.5l-1.4,3.3L37.5,44l8.8,4.7l8.8-4.7l-5.9-3.3l1.4-3.3l5.9,4.4l2.9-1.1l-8.8-5.5
	v-4.4l4.3,3.3l2.9,1.1l1.4-2.5l-2.9-4.2l5.9,2.3l2.9,8.9l4.3-1.1l-1.4-5.5l2.9,1.1v4.5l13.2-1.2l-2.9-7.8l-10.3,2.2l-1.3-1.1
	L80,28.6l-0.8-2.2l-14,2.2l-5.9-2.2h8.8l4.3-1.1l-5.9-2.2h-7.4l7.4-2.2l13.2,2.2l1.4-2.2l-10.3-2.2l2.9-1.1l8.8,2.2l4.3-6.7
	l-11.3-2.3l-2.9,5.5l-2.9,1.1l2.9-6.7l-2.9-1.1l-5.9,8.9L58,20.8l4.3-4.4v-3.3l-5.9,2.2l-2.9,3.3v-4.4l11.7-5.5l-2.9-2.4l-8.8,4.5
	V9.7l7.4-4.4l-7.4-4.5l-8.8,4.4l4.5,4.5v1.1l-6.7-4.1L42,6.3l-1.4,2.2l8.8,6.7l-1.4,3.3L45,15.2L40.6,13l-1.4,3.3l2.9,3.3l-6.1-1
	l-2.9-8.9l-3,1.1l1.4,5.5h-1.4l-2.9-5.5C23.8,11.5,20.4,12.3,16.9,13z"/>
<path class="st1" d="M21.3,14.1v2.2c1.4,0,2.9,0,4.3,0c-0.4-0.7-0.9-1.5-1.3-2.2H21.3z"/>
<polygon class="st1" points="19.8,33 18.4,35.2 18.4,35.2 21.5,35.2 22.7,33 "/>
<polygon class="st1" points="50.6,21.9 44.9,23 44.9,26.3 49.2,27.9 53.5,26.3 55.1,23 "/>
<polygon class="st1" points="74.2,33 74.2,35.2 78.6,35.2 77.3,33 "/>
<polygon class="st1" points="77.6,14.1 76.2,16.3 76.2,16.3 79.4,16.3 80.5,14.1 "/>
<polygon class="st1" points="46.3,41.9 44.9,44.1 46.3,45.2 49.2,43 "/>
<polygon class="st1" points="52.1,3.9 50.6,6.1 52.1,7.2 55.1,5 "/>
</svg>
