<?xml version="1.0" encoding="utf-8"?>
<!-- Generator: Adobe Illustrator 25.3.1, SVG Export Plug-In . SVG Version: 6.00 Build 0)  -->
<svg version="1.1" id="Слой_1" xmlns="http://www.w3.org/2000/svg" xmlns:xlink="http://www.w3.org/1999/xlink" x="0px" y="0px"
	 viewBox="0 0 60 50" style="enable-background:new 0 0 60 50;" xml:space="preserve">
<style type="text/css">
	.st0{fill:url(#SVGID_1_);stroke:#000000;stroke-width:0.1;stroke-miterlimit:10;}
	.st1{fill:none;stroke:#0E00AA;stroke-miterlimit:10;}
</style>
<linearGradient id="SVGID_1_" gradientUnits="userSpaceOnUse" x1="41.0553" y1="59.2065" x2="23.429" y2="5.6654" gradientTransform="matrix(1 0 0 -1 0 52)">
	<stop  offset="0" style="stop-color:#00A99D"/>
	<stop  offset="0.3476" style="stop-color:#0B6A85"/>
	<stop  offset="0.6435" style="stop-color:#143B73"/>
	<stop  offset="0.87" style="stop-color:#191F68"/>
	<stop  offset="1" style="stop-color:#1B1464"/>
</linearGradient>
<path class="st0" d="M0.2,26.7c-0.9-1.9,1.7-4.7,2.2-5.1c1.9-1.9,2.8-1.4,4.5-3c2.4-2.3,1.1-3.8,3.3-6.2c2.4-2.4,5.8-2.9,6.7-3
	c3.5-0.5,4.1,0.8,6.7,0c2.8-0.8,2.4-2.5,5.6-4.1s6.3-1.2,7.8-1c0.7,0.1,3.9,0.7,6.7,3c2.6,2.3,1.9,3.5,4.5,6.2
	c1.9,1.8,3,1.8,4.6,2.7c0,0,0.9,0.4,2,1.3c2.4,1.7,6.9,8.6,4.5,11.2c-0.7,0.7-1.7,1-12.3,0c-8.2-0.8-8.2-1-11.2-1
	c-4.6,0.1-5,0.7-11.2,1c-5.4,0.2-4.5-0.4-8.9,0c-5.4,0.4-8.2,1.2-12.3,0C1.1,28,0.6,27.2,0.2,26.7z"/>
<line class="st1" x1="8.1" y1="35" x2="8.1" y2="38"/>
<line class="st1" x1="26.3" y1="33.5" x2="26.3" y2="36.5"/>
<line class="st1" x1="22.3" y1="35.6" x2="22.3" y2="38"/>
<line class="st1" x1="15" y1="34.1" x2="15" y2="37.2"/>
<line class="st1" x1="30" y1="30.7" x2="30" y2="33.7"/>
<line class="st1" x1="35.3" y1="33" x2="35.3" y2="36"/>
<line class="st1" x1="42.2" y1="32.6" x2="42.2" y2="35.6"/>
<line class="st1" x1="45.7" y1="35.3" x2="45.7" y2="38.3"/>
<line class="st1" x1="50.3" y1="33.5" x2="50.3" y2="36.5"/>
<line class="st1" x1="5.5" y1="32.2" x2="5.5" y2="35.2"/>
<line class="st1" x1="54.3" y1="32" x2="54.3" y2="35"/>
</svg>
