<?xml version="1.0" encoding="utf-8"?>
<!-- Generator: Adobe Illustrator 25.3.1, SVG Export Plug-In . SVG Version: 6.00 Build 0)  -->
<svg version="1.1" id="Слой_1" xmlns="http://www.w3.org/2000/svg" xmlns:xlink="http://www.w3.org/1999/xlink" x="0px" y="0px"
	 viewBox="0 0 100 50" style="enable-background:new 0 0 100 50;" xml:space="preserve">
<style type="text/css">
	.st0{fill:url(#SVGID_1_);}
	.st1{display:none;fill:url(#SVGID_2_);stroke:#000000;stroke-width:0.1;stroke-miterlimit:10;}
	.st2{display:none;fill:url(#SVGID_3_);stroke:#000000;stroke-width:0.1;stroke-miterlimit:10;}
	.st3{display:none;fill:url(#SVGID_4_);stroke:#000000;stroke-width:0.1;stroke-miterlimit:10;}
	.st4{opacity:0.3;}
	.st5{fill:url(#SVGID_5_);}
	.st6{fill:#E8E8AF;}
	.st7{opacity:0.2;}
	.st8{fill:#F23D3D;}
</style>
<g>
	<linearGradient id="SVGID_1_" gradientUnits="userSpaceOnUse" x1="40.4449" y1="53.4422" x2="59.5106" y2="-3.3095">
		<stop  offset="0" style="stop-color:#F15A24"/>
		<stop  offset="0.1677" style="stop-color:#F48623"/>
		<stop  offset="0.3376" style="stop-color:#F7AB22"/>
		<stop  offset="0.5077" style="stop-color:#F9C922"/>
		<stop  offset="0.6758" style="stop-color:#FBDD21"/>
		<stop  offset="0.841" style="stop-color:#FCEA21"/>
		<stop  offset="1" style="stop-color:#FCEE21"/>
	</linearGradient>
	<ellipse class="st0" cx="50" cy="25" rx="30" ry="25"/>
	<path d="M50,0.1c16.5,0,29.9,11.2,29.9,24.9S66.5,49.9,50,49.9S20.1,38.7,20.1,25S33.5,0.1,50,0.1 M50,0C33.4,0,20,11.2,20,25
		s13.4,25,30,25s30-11.2,30-25S66.6,0,50,0L50,0z"/>
</g>
<linearGradient id="SVGID_2_" gradientUnits="userSpaceOnUse" x1="55.2208" y1="32.6211" x2="1.475" y2="32.012">
	<stop  offset="0" style="stop-color:#00A99D"/>
	<stop  offset="0.3476" style="stop-color:#0B6A85"/>
	<stop  offset="0.6435" style="stop-color:#143B73"/>
	<stop  offset="0.87" style="stop-color:#191F68"/>
	<stop  offset="1" style="stop-color:#1B1464"/>
</linearGradient>
<path class="st1" d="M0,42c-0.8-1.9,1.5-4.5,2-5c1.7-1.9,2.5-1.4,4-3c2.1-2.3,1-3.8,3-6c2.1-2.4,5.2-2.9,6-3c3.1-0.5,3.7,0.8,6,0
	c2.5-0.8,2.2-2.5,5-4c2.8-1.5,5.7-1.2,7-1c0.7,0.1,3.5,0.7,6,3c2.3,2.2,1.7,3.5,4,6c1.6,1.8,2.6,1.8,4.2,2.7c0,0,0.8,0.4,1.8,1.3
	c2.1,1.7,6.1,8.4,4,11c-0.6,0.7-1.5,1-11,0c-7.3-0.8-7.4-1-10-1c-4.1,0.1-4.5,0.7-10,1c-4.8,0.2-4-0.3-8,0c-4.8,0.3-7.3,1.2-11,0
	C0.8,43.3,0.2,42.6,0,42z"/>
<linearGradient id="SVGID_3_" gradientUnits="userSpaceOnUse" x1="50.2387" y1="30.496" x2="103.9843" y2="31.1364">
	<stop  offset="0" style="stop-color:#00A99D"/>
	<stop  offset="0.3476" style="stop-color:#0B6A85"/>
	<stop  offset="0.6435" style="stop-color:#143B73"/>
	<stop  offset="0.87" style="stop-color:#191F68"/>
	<stop  offset="1" style="stop-color:#1B1464"/>
</linearGradient>
<path class="st2" d="M46.3,40.5c-0.8-1.9,1.5-4.5,2-5c1.7-1.9,2.5-1.4,4-3c2.1-2.3,1-3.8,3-6c2.1-2.4,5.2-2.9,6-3
	c3.1-0.5,3.7,0.8,6,0c2.5-0.8,2.2-2.5,5-4c2.8-1.5,5.7-1.2,7-1c0.7,0.1,3.5,0.7,6,3c2.3,2.2,1.7,3.5,4,6c1.6,1.8,2.6,1.8,4.2,2.7
	c0,0,0.8,0.4,1.8,1.3c2.1,1.7,6.1,8.4,4,11c-0.6,0.7-1.5,1-11,0c-7.3-0.8-7.4-1-10-1c-4.1,0.1-4.5,0.7-10,1c-4.8,0.2-4-0.3-8,0
	c-4.8,0.3-7.3,1.2-11,0C47.1,41.8,46.5,41,46.3,40.5z"/>
<linearGradient id="SVGID_4_" gradientUnits="userSpaceOnUse" x1="60.6463" y1="11.8928" x2="43.8386" y2="62.9465">
	<stop  offset="0" style="stop-color:#00A99D"/>
	<stop  offset="0.3476" style="stop-color:#0B6A85"/>
	<stop  offset="0.6435" style="stop-color:#143B73"/>
	<stop  offset="0.87" style="stop-color:#191F68"/>
	<stop  offset="1" style="stop-color:#1B1464"/>
</linearGradient>
<path class="st3" d="M23.3,44.5c-0.8-1.9,1.5-4.5,2-5c1.7-1.9,2.5-1.4,4-3c2.1-2.3,1-3.8,3-6c2.1-2.4,5.2-2.9,6-3
	c3.1-0.5,3.7,0.8,6,0c2.5-0.8,2.2-2.5,5-4c2.8-1.5,5.7-1.2,7-1c0.7,0.1,3.5,0.7,6,3c2.3,2.2,1.7,3.5,4,6c1.6,1.8,2.6,1.8,4.2,2.7
	c0,0,0.8,0.4,1.8,1.3c2.1,1.7,6.1,8.4,4,11c-0.6,0.7-1.5,1-11,0c-7.3-0.8-7.4-1-10-1c-4.1,0.1-4.5,0.7-10,1c-4.8,0.2-4-0.3-8,0
	c-4.8,0.3-7.3,1.2-11,0C24.1,45.8,23.5,45,23.3,44.5z"/>
<g class="st4">
	<linearGradient id="SVGID_5_" gradientUnits="userSpaceOnUse" x1="39.4552" y1="56.3878" x2="60.4946" y2="-6.2388">
		<stop  offset="0" style="stop-color:#F15A24"/>
		<stop  offset="0.1677" style="stop-color:#F48623"/>
		<stop  offset="0.3376" style="stop-color:#F7AB22"/>
		<stop  offset="0.5077" style="stop-color:#F9C922"/>
		<stop  offset="0.6758" style="stop-color:#FBDD21"/>
		<stop  offset="0.841" style="stop-color:#FCEA21"/>
		<stop  offset="1" style="stop-color:#FCEE21"/>
	</linearGradient>
	<path class="st5" d="M81,25c0,10.9-6.9,20.4-17,25H36c-10.1-4.6-17-14.1-17-25S25.9,4.6,36,0H64C74.1,4.6,81,14.1,81,25z"/>
</g>
<g>
	<path d="M99.9,0.1v49.8H0.1V0.1H99.9 M100,0H0v50h100V0L100,0z"/>
</g>
<g>
	<path class="st6" d="M69,10c0,0-0.2-0.2-0.3-0.3C68.4,9.2,67.9,8.6,67,8c-0.4-0.3-0.7-0.4-1.1-0.6C65.7,7.3,65.4,7.2,65,7
		c-0.9-0.5-1.4-0.8-1.8-1.2C62.9,5.5,62.6,5.3,62,5c-1.5-0.8-2.9-1-3.6-1.1c-0.2,0-0.4,0-0.4-0.1c0.1,0,0.6-0.2,1.6-0.2
		c0.6,0,1.4,0,2.4,0.2C63.3,4.1,66.3,4.7,68,7C68.8,8.2,69.1,9.5,69,10L69,10z"/>
	<path d="M59.6,3.7L59.6,3.7c0.5,0,1.4,0,2.4,0.2c1.3,0.2,4.2,0.8,5.9,3.1c0.9,1.3,1.1,2.6,1,2.8c-0.1,0-0.2-0.2-0.2-0.3
		c-0.3-0.4-0.8-1.1-1.7-1.7c-0.4-0.3-0.7-0.4-1.1-0.6c-0.2-0.1-0.5-0.2-0.9-0.4c-0.9-0.5-1.4-0.8-1.8-1.2c-0.3-0.3-0.7-0.5-1.2-0.8
		c-1.5-0.8-2.9-1-3.6-1.1c-0.1,0-0.1,0-0.2,0C58.5,3.8,59,3.7,59.6,3.7 M59.6,3.6c-1,0-1.6,0.1-1.7,0.2c0,0.2,1.9,0,4,1.2
		c1.2,0.7,1.3,1.1,3,2c1,0.5,1.3,0.5,2,1c1.3,0.9,1.8,2,2,2c0,0,0,0,0,0c0.2-0.1,0-1.6-1-3c-1.7-2.4-4.7-2.9-5.9-3.2
		C61.2,3.7,60.3,3.6,59.6,3.6L59.6,3.6z"/>
</g>
<g>
	<path class="st6" d="M71.8,13c-0.4,0-1.1-0.4-1.5-0.9c-0.2-0.2-0.3-0.4-0.2-0.6c0.1-0.3,0.6-0.5,1-0.5c0.1,0,0.6,0,1,0.5
		c0.2,0.3,0.3,0.7,0.2,1c0,0.2-0.1,0.3-0.2,0.4C71.9,13,71.9,13,71.8,13z"/>
	<path d="M71,11.1c0,0,0.6,0,0.9,0.5c0.2,0.3,0.3,0.7,0.2,1c0,0.2-0.1,0.3-0.2,0.4c0,0-0.1,0-0.2,0c-0.4,0-1.1-0.4-1.5-0.9
		c-0.2-0.2-0.2-0.4-0.2-0.5C70.2,11.3,70.6,11.1,71,11.1 M71,11c-0.4,0-0.9,0.2-1,0.5c-0.1,0.6,1.1,1.6,1.8,1.6c0.1,0,0.2,0,0.2-0.1
		c0.3-0.2,0.4-1,0-1.5C71.6,11,71,11,71,11L71,11z"/>
</g>
<g class="st7">
	<ellipse class="st8" cx="50" cy="25" rx="30" ry="25"/>
</g>
</svg>
