<?xml version="1.0" encoding="utf-8"?>
<!-- Generator: Adobe Illustrator 25.3.1, SVG Export Plug-In . SVG Version: 6.00 Build 0)  -->
<svg version="1.1" id="Слой_1" xmlns="http://www.w3.org/2000/svg" xmlns:xlink="http://www.w3.org/1999/xlink" x="0px" y="0px"
	 viewBox="0 0 60 50" style="enable-background:new 0 0 60 50;" xml:space="preserve">
<style type="text/css">
	.st0{fill:url(#SVGID_1_);stroke:#000000;stroke-width:0.1;stroke-miterlimit:10;}
	.st1{fill:url(#SVGID_2_);stroke:#000000;stroke-width:0.1;stroke-miterlimit:10;}
	.st2{fill:url(#SVGID_3_);stroke:#000000;stroke-width:0.1;stroke-miterlimit:10;}
	.st3{fill:url(#SVGID_4_);stroke:#000000;stroke-width:0.25;stroke-miterlimit:10;}
	.st4{fill:url(#SVGID_5_);stroke:#000000;stroke-width:0.25;stroke-miterlimit:10;}
	.st5{fill:url(#SVGID_6_);stroke:#000000;stroke-width:0.25;stroke-miterlimit:10;}
	.st6{fill:url(#SVGID_7_);stroke:#000000;stroke-width:0.25;stroke-miterlimit:10;}
	.st7{fill:url(#SVGID_8_);stroke:#000000;stroke-width:0.25;stroke-miterlimit:10;}
	.st8{fill:url(#SVGID_9_);stroke:#000000;stroke-width:0.25;stroke-miterlimit:10;}
</style>
<linearGradient id="SVGID_1_" gradientUnits="userSpaceOnUse" x1="33.1674" y1="38.7053" x2="0.9693" y2="39.0702" gradientTransform="matrix(1 0 0 -1 0 54)">
	<stop  offset="0" style="stop-color:#00A99D"/>
	<stop  offset="0.3476" style="stop-color:#0B6A85"/>
	<stop  offset="0.6435" style="stop-color:#143B73"/>
	<stop  offset="0.87" style="stop-color:#191F68"/>
	<stop  offset="1" style="stop-color:#1B1464"/>
</linearGradient>
<path class="st0" d="M0.1,23.2C-0.4,21.6,1,19.4,1.3,19c1-1.6,1.5-1.2,2.4-2.5c1.3-2,0.6-3.3,1.8-5.1c1.3-2,3.1-2.4,3.6-2.5
	c1.9-0.4,2.2,0.7,3.6,0c1.5-0.7,1.3-2.1,3-3.4c1.7-1.3,3.4-1,4.2-0.8c0.4,0.1,2.1,0.6,3.6,2.5c1.4,1.9,1,2.9,2.4,5.1
	c1,1.5,1.6,1.5,2.5,2.3c0,0,0.5,0.3,1.1,1.1c1.3,1.4,3.7,7.1,2.4,9.3c-0.4,0.6-0.9,0.8-6.6,0c-4.4-0.7-4.4-0.8-6-0.8
	c-2.5,0.1-2.7,0.6-6,0.8c-2.9,0.2-2.4-0.3-4.8,0c-2.9,0.3-4.4,1-6.6,0C0.6,24.3,0.2,23.7,0.1,23.2z"/>
<linearGradient id="SVGID_2_" gradientUnits="userSpaceOnUse" x1="30.1829" y1="37.8589" x2="62.3811" y2="37.4754" gradientTransform="matrix(1 0 0 -1 0 54)">
	<stop  offset="0" style="stop-color:#00A99D"/>
	<stop  offset="0.3476" style="stop-color:#0B6A85"/>
	<stop  offset="0.6435" style="stop-color:#143B73"/>
	<stop  offset="0.87" style="stop-color:#191F68"/>
	<stop  offset="1" style="stop-color:#1B1464"/>
</linearGradient>
<path class="st1" d="M27.9,24.4c-0.5-1.6,0.9-3.8,1.2-4.2c1-1.6,1.5-1.2,2.4-2.5c1.3-1.9,0.6-3.2,1.8-5.1c1.3-2,3.1-2.4,3.6-2.5
	c1.9-0.4,2.2,0.7,3.6,0c1.5-0.7,1.3-2.1,3-3.4c1.7-1.3,3.4-1,4.2-0.8C48,6,49.7,6.5,51.2,8.4c1.4,1.9,1,2.9,2.4,5.1
	c1,1.5,1.6,1.5,2.5,2.3c0,0,0.5,0.3,1.1,1.1c1.3,1.4,3.7,7.1,2.4,9.3c-0.4,0.6-0.9,0.8-6.6,0c-4.4-0.7-4.4-0.8-6-0.8
	c-2.5,0.1-2.7,0.6-6,0.8c-2.9,0.2-2.4-0.3-4.8,0c-2.9,0.3-4.4,1-6.6,0C28.3,25.5,28,24.9,27.9,24.4z"/>
<linearGradient id="SVGID_3_" gradientUnits="userSpaceOnUse" x1="37.4156" y1="54.3055" x2="24.4705" y2="14.9843" gradientTransform="matrix(1 0 0 -1 0 54)">
	<stop  offset="0" style="stop-color:#00A99D"/>
	<stop  offset="0.3476" style="stop-color:#0B6A85"/>
	<stop  offset="0.6435" style="stop-color:#143B73"/>
	<stop  offset="0.87" style="stop-color:#191F68"/>
	<stop  offset="1" style="stop-color:#1B1464"/>
</linearGradient>
<path class="st2" d="M12.9,25.8c-0.5-1.6,0.9-3.8,1.2-4.2c1-1.6,1.5-1.2,2.4-2.5c1.3-1.9,0.6-3.2,1.8-5.1c1.3-2,3.1-2.4,3.6-2.5
	c1.9-0.4,2.2,0.7,3.6,0c1.5-0.7,1.3-2.1,3-3.4c1.7-1.3,3.4-1,4.2-0.8c0.4,0.1,2.1,0.6,3.6,2.5c1.4,1.9,1,2.9,2.4,5.1
	c1,1.5,1.6,1.5,2.5,2.3c0,0,0.5,0.3,1.1,1.1c1.3,1.4,3.7,7.1,2.4,9.3c-0.4,0.6-0.9,0.8-6.6,0c-4.4-0.7-4.4-0.8-6-0.8
	c-2.5,0.1-2.7,0.6-6,0.8c-2.9,0.2-2.4-0.3-4.8,0c-2.9,0.3-4.4,1-6.6,0C13.4,26.9,13,26.2,12.9,25.8z"/>
<linearGradient id="SVGID_4_" gradientUnits="userSpaceOnUse" x1="23.1296" y1="16.8757" x2="41.9781" y2="16.8757" gradientTransform="matrix(-0.9987 5.187876e-02 5.187876e-02 0.9987 61.014 14.0096)">
	<stop  offset="5.327789e-09" style="stop-color:#D4C300"/>
	<stop  offset="0.3476" style="stop-color:#FFEE2A"/>
	<stop  offset="0.6435" style="stop-color:#E9D000"/>
	<stop  offset="0.87" style="stop-color:#FFD66A"/>
	<stop  offset="0.9955" style="stop-color:#7F6700"/>
</linearGradient>
<polygon class="st3" points="21.7,46.3 36.3,28.4 30.7,25.5 38.3,20.8 34.2,18.9 25.2,26.6 30.9,29.7 20.7,45.8 "/>
<linearGradient id="SVGID_5_" gradientUnits="userSpaceOnUse" x1="14.5856" y1="22.2667" x2="10.8228" y2="10.837" gradientTransform="matrix(0.585 -6.588418e-03 -8.681628e-03 -0.7708 16.3612 51.5122)">
	<stop  offset="0" style="stop-color:#00A99D"/>
	<stop  offset="0.3476" style="stop-color:#003499"/>
	<stop  offset="0.6435" style="stop-color:#00F4FF"/>
	<stop  offset="0.87" style="stop-color:#191F68"/>
	<stop  offset="1" style="stop-color:#1B1464"/>
</linearGradient>
<path class="st4" d="M25.2,39.3c0,1.2-0.7,2.2-1.7,2.2c-1,0-1.7-1-1.7-2.2c0-0.3,0.1-0.7,0.4-1.5c0.6-1.4,0.8-2.1,1.2-2.1
	c0.3,0,0.6,0.7,1.2,2.1C25.2,39,25.2,39.2,25.2,39.3z"/>
<linearGradient id="SVGID_6_" gradientUnits="userSpaceOnUse" x1="-1.8596" y1="29.6832" x2="-5.6226" y2="18.2534" gradientTransform="matrix(0.585 -6.588418e-03 -8.681628e-03 -0.7708 16.3612 51.5122)">
	<stop  offset="0" style="stop-color:#00A99D"/>
	<stop  offset="0.3476" style="stop-color:#003499"/>
	<stop  offset="0.6435" style="stop-color:#00F4FF"/>
	<stop  offset="0.87" style="stop-color:#191F68"/>
	<stop  offset="1" style="stop-color:#1B1464"/>
</linearGradient>
<path class="st5" d="M15.5,33.7c0,1.2-0.7,2.2-1.7,2.2c-0.9,0-1.7-1-1.7-2.2c0-0.3,0.1-0.7,0.4-1.5c0.6-1.4,0.8-2.1,1.2-2.1
	c0.3,0,0.6,0.7,1.2,2.1C15.4,33.3,15.5,33.5,15.5,33.7z"/>
<linearGradient id="SVGID_7_" gradientUnits="userSpaceOnUse" x1="35.0707" y1="22.0995" x2="31.3078" y2="10.6696" gradientTransform="matrix(0.585 -6.588418e-03 -8.681628e-03 -0.7708 16.3612 51.5122)">
	<stop  offset="0" style="stop-color:#00A99D"/>
	<stop  offset="0.3476" style="stop-color:#003499"/>
	<stop  offset="0.6435" style="stop-color:#00F4FF"/>
	<stop  offset="0.87" style="stop-color:#191F68"/>
	<stop  offset="1" style="stop-color:#1B1464"/>
</linearGradient>
<path class="st6" d="M37.2,39.3c0,1.2-0.7,2.2-1.7,2.2c-0.9,0-1.7-1-1.7-2.2c0-0.3,0.1-0.7,0.4-1.5c0.6-1.4,0.8-2.1,1.2-2.1
	c0.3,0,0.6,0.7,1.2,2.1C37.2,39,37.2,39.2,37.2,39.3z"/>
<linearGradient id="SVGID_8_" gradientUnits="userSpaceOnUse" x1="46.5954" y1="28.8362" x2="42.8325" y2="17.4065" gradientTransform="matrix(0.585 -6.588418e-03 -8.681628e-03 -0.7708 16.3612 51.5122)">
	<stop  offset="0" style="stop-color:#00A99D"/>
	<stop  offset="0.3476" style="stop-color:#003499"/>
	<stop  offset="0.6435" style="stop-color:#00F4FF"/>
	<stop  offset="0.87" style="stop-color:#191F68"/>
	<stop  offset="1" style="stop-color:#1B1464"/>
</linearGradient>
<path class="st7" d="M43.8,34c0,1.2-0.7,2.2-1.7,2.2c-0.9,0-1.7-1-1.7-2.2c0-0.3,0.1-0.7,0.4-1.5c0.6-1.4,0.8-2.1,1.2-2.1
	c0.3,0,0.6,0.7,1.2,2.1C43.8,33.7,43.8,33.9,43.8,34z"/>
<linearGradient id="SVGID_9_" gradientUnits="userSpaceOnUse" x1="23.9216" y1="30.8483" x2="20.1587" y2="19.4184" gradientTransform="matrix(0.585 -6.588418e-03 -8.681628e-03 -0.7708 16.3612 51.5122)">
	<stop  offset="0" style="stop-color:#00A99D"/>
	<stop  offset="0.3476" style="stop-color:#003499"/>
	<stop  offset="0.6435" style="stop-color:#00F4FF"/>
	<stop  offset="0.87" style="stop-color:#191F68"/>
	<stop  offset="1" style="stop-color:#1B1464"/>
</linearGradient>
<path class="st8" d="M30.6,32.6c0,1.2-0.7,2.2-1.7,2.2c-0.9,0-1.7-1-1.7-2.2c0-0.3,0.1-0.7,0.4-1.5c0.6-1.4,0.8-2.1,1.2-2.1
	c0.3,0,0.6,0.7,1.2,2.1C30.6,32.3,30.6,32.5,30.6,32.6z"/>
</svg>
