<?xml version="1.0" encoding="utf-8"?>
<!-- Generator: Adobe Illustrator 25.3.1, SVG Export Plug-In . SVG Version: 6.00 Build 0)  -->
<svg version="1.1" id="Слой_1" xmlns="http://www.w3.org/2000/svg" xmlns:xlink="http://www.w3.org/1999/xlink" x="0px" y="0px"
	 viewBox="0 0 100 50" style="enable-background:new 0 0 100 50;" xml:space="preserve">
<style type="text/css">
	.st0{fill:url(#SVGID_1_);}
	.st1{fill:url(#SVGID_2_);stroke:#000000;stroke-width:0.1;stroke-miterlimit:10;}
	.st2{fill:url(#SVGID_3_);stroke:#000000;stroke-width:0.1;stroke-miterlimit:10;}
	.st3{fill:url(#SVGID_4_);stroke:#000000;stroke-width:0.1;stroke-miterlimit:10;}
</style>
<g>
	<linearGradient id="SVGID_1_" gradientUnits="userSpaceOnUse" x1="40.4449" y1="53.4422" x2="59.5106" y2="-3.3095">
		<stop  offset="0" style="stop-color:#F15A24"/>
		<stop  offset="0.1677" style="stop-color:#F48623"/>
		<stop  offset="0.3376" style="stop-color:#F7AB22"/>
		<stop  offset="0.5077" style="stop-color:#F9C922"/>
		<stop  offset="0.6758" style="stop-color:#FBDD21"/>
		<stop  offset="0.841" style="stop-color:#FCEA21"/>
		<stop  offset="1" style="stop-color:#FCEE21"/>
	</linearGradient>
	<ellipse class="st0" cx="50" cy="25" rx="30" ry="25"/>
	<path d="M50,0.1c16.5,0,29.9,11.2,29.9,24.9S66.5,49.9,50,49.9S20.1,38.7,20.1,25S33.5,0.1,50,0.1 M50,0C33.4,0,20,11.2,20,25
		s13.4,25,30,25s30-11.2,30-25S66.6,0,50,0L50,0z"/>
</g>
<linearGradient id="SVGID_2_" gradientUnits="userSpaceOnUse" x1="55.2208" y1="32.6211" x2="1.475" y2="32.012">
	<stop  offset="0" style="stop-color:#00A99D"/>
	<stop  offset="0.3476" style="stop-color:#0B6A85"/>
	<stop  offset="0.6435" style="stop-color:#143B73"/>
	<stop  offset="0.87" style="stop-color:#191F68"/>
	<stop  offset="1" style="stop-color:#1B1464"/>
</linearGradient>
<path class="st1" d="M0,42c-0.8-1.9,1.5-4.5,2-5c1.7-1.9,2.5-1.4,4-3c2.1-2.3,1-3.8,3-6c2.1-2.4,5.2-2.9,6-3c3.1-0.5,3.7,0.8,6,0
	c2.5-0.8,2.2-2.5,5-4c2.8-1.5,5.7-1.2,7-1c0.7,0.1,3.5,0.7,6,3c2.3,2.2,1.7,3.5,4,6c1.6,1.8,2.6,1.8,4.2,2.7c0,0,0.8,0.4,1.8,1.3
	c2.1,1.7,6.1,8.4,4,11c-0.6,0.7-1.5,1-11,0c-7.3-0.8-7.4-1-10-1c-4.1,0.1-4.5,0.7-10,1c-4.8,0.2-4-0.3-8,0c-4.8,0.3-7.3,1.2-11,0
	C0.8,43.3,0.2,42.6,0,42z"/>
<linearGradient id="SVGID_3_" gradientUnits="userSpaceOnUse" x1="50.2387" y1="30.496" x2="103.9843" y2="31.1364">
	<stop  offset="0" style="stop-color:#00A99D"/>
	<stop  offset="0.3476" style="stop-color:#0B6A85"/>
	<stop  offset="0.6435" style="stop-color:#143B73"/>
	<stop  offset="0.87" style="stop-color:#191F68"/>
	<stop  offset="1" style="stop-color:#1B1464"/>
</linearGradient>
<path class="st2" d="M46.3,40.5c-0.8-1.9,1.5-4.5,2-5c1.7-1.9,2.5-1.4,4-3c2.1-2.3,1-3.8,3-6c2.1-2.4,5.2-2.9,6-3
	c3.1-0.5,3.7,0.8,6,0c2.5-0.8,2.2-2.5,5-4c2.8-1.5,5.7-1.2,7-1c0.7,0.1,3.5,0.7,6,3c2.3,2.2,1.7,3.5,4,6c1.6,1.8,2.6,1.8,4.2,2.7
	c0,0,0.8,0.4,1.8,1.3c2.1,1.7,6.1,8.4,4,11c-0.6,0.7-1.5,1-11,0c-7.3-0.8-7.4-1-10-1c-4.1,0.1-4.5,0.7-10,1c-4.8,0.2-4-0.3-8,0
	c-4.8,0.3-7.3,1.2-11,0C47.1,41.8,46.5,41,46.3,40.5z"/>
<linearGradient id="SVGID_4_" gradientUnits="userSpaceOnUse" x1="60.6463" y1="11.8928" x2="43.8386" y2="62.9465">
	<stop  offset="0" style="stop-color:#00A99D"/>
	<stop  offset="0.3476" style="stop-color:#0B6A85"/>
	<stop  offset="0.6435" style="stop-color:#143B73"/>
	<stop  offset="0.87" style="stop-color:#191F68"/>
	<stop  offset="1" style="stop-color:#1B1464"/>
</linearGradient>
<path class="st3" d="M23.3,44.5c-0.8-1.9,1.5-4.5,2-5c1.7-1.9,2.5-1.4,4-3c2.1-2.3,1-3.8,3-6c2.1-2.4,5.2-2.9,6-3
	c3.1-0.5,3.7,0.8,6,0c2.5-0.8,2.2-2.5,5-4c2.8-1.5,5.7-1.2,7-1c0.7,0.1,3.5,0.7,6,3c2.3,2.2,1.7,3.5,4,6c1.6,1.8,2.6,1.8,4.2,2.7
	c0,0,0.8,0.4,1.8,1.3c2.1,1.7,6.1,8.4,4,11c-0.6,0.7-1.5,1-11,0c-7.3-0.8-7.4-1-10-1c-4.1,0.1-4.5,0.7-10,1c-4.8,0.2-4-0.3-8,0
	c-4.8,0.3-7.3,1.2-11,0C24.1,45.8,23.5,45,23.3,44.5z"/>
</svg>
