<?xml version="1.0" encoding="utf-8"?>
<!-- Generator: Adobe Illustrator 25.3.1, SVG Export Plug-In . SVG Version: 6.00 Build 0)  -->
<svg version="1.1" id="Слой_1" xmlns="http://www.w3.org/2000/svg" xmlns:xlink="http://www.w3.org/1999/xlink" x="0px" y="0px"
	 viewBox="0 0 60 50" style="enable-background:new 0 0 60 50;" xml:space="preserve">
<style type="text/css">
	.st0{fill:url(#SVGID_1_);stroke:#000000;stroke-width:0.1;stroke-miterlimit:10;}
	.st1{fill:none;stroke:#808080;stroke-miterlimit:10;}
</style>
<image style="display:none;overflow:visible;enable-background:new    ;" width="1300" height="1083" xlink:href="EEC33257.jpg"  transform="matrix(5.191417e-02 0 0 4.046068e-02 -3.7442 3.0905)">
</image>
<linearGradient id="SVGID_1_" gradientUnits="userSpaceOnUse" x1="8.1626" y1="13.143" x2="62.2165" y2="13.7869" gradientTransform="matrix(1 0 0 1 0 4)">
	<stop  offset="0" style="stop-color:#D8D8D8"/>
	<stop  offset="0.3476" style="stop-color:#636363"/>
	<stop  offset="0.87" style="stop-color:#444444"/>
	<stop  offset="1" style="stop-color:#161616"/>
</linearGradient>
<path class="st0" d="M4.3,25.5c-0.8-1.6,1.5-3.8,2-4.2c1.7-1.6,2.5-1.2,4-2.5c2.2-1.9,1-3.2,3-5.1c2.2-2,5.2-2.4,6-2.5
	c3.2-0.4,3.7,0.7,6,0c2.5-0.7,2.2-2.1,5-3.4s5.7-1,7-0.8c0.7,0.1,3.5,0.6,6,2.5c2.3,1.9,1.7,2.9,4,5.1c1.7,1.5,2.7,1.5,4.2,2.3
	c0,0,0.8,0.3,1.8,1.1c2.2,1.4,6.2,7.1,4,9.3c-0.7,0.6-1.5,0.8-11.1,0c-7.4-0.7-7.4-0.8-10.1-0.8c-4.2,0.1-4.5,0.6-10.1,0.8
	c-4.9,0.2-4-0.3-8,0c-4.9,0.3-7.4,1-11.1,0C5,26.6,4.5,26,4.3,25.5z"/>
<line class="st1" x1="7.9" y1="31.6" x2="54.3" y2="32"/>
<line class="st1" x1="8.2" y1="43.2" x2="53.7" y2="43.2"/>
<line class="st1" x1="8.3" y1="37.6" x2="53.8" y2="37.6"/>
</svg>
