<?xml version="1.0" encoding="utf-8"?>
<!-- Generator: Adobe Illustrator 25.3.1, SVG Export Plug-In . SVG Version: 6.00 Build 0)  -->
<svg version="1.1" id="Слой_1" xmlns="http://www.w3.org/2000/svg" xmlns:xlink="http://www.w3.org/1999/xlink" x="0px" y="0px"
	 viewBox="0 0 60 50" style="enable-background:new 0 0 60 50;" xml:space="preserve">
<style type="text/css">
	.st0{fill:url(#SVGID_1_);stroke:#000000;stroke-width:0.1;stroke-miterlimit:10;}
	.st1{fill:url(#SVGID_2_);stroke:#000000;stroke-width:0.1;stroke-miterlimit:10;}
	.st2{fill:url(#SVGID_3_);stroke:#000000;stroke-width:0.1;stroke-miterlimit:10;}
	.st3{fill:url(#SVGID_4_);stroke:#000000;stroke-width:0.25;stroke-miterlimit:10;}
	.st4{fill:url(#SVGID_5_);stroke:#000000;stroke-width:0.25;stroke-miterlimit:10;}
	.st5{fill:url(#SVGID_6_);stroke:#000000;stroke-width:0.25;stroke-miterlimit:10;}
	.st6{fill:url(#SVGID_7_);stroke:#000000;stroke-width:0.25;stroke-miterlimit:10;}
	.st7{fill:url(#SVGID_8_);stroke:#000000;stroke-width:0.25;stroke-miterlimit:10;}
	.st8{fill:url(#SVGID_9_);stroke:#000000;stroke-width:0.25;stroke-miterlimit:10;}
</style>
<linearGradient id="SVGID_1_" gradientUnits="userSpaceOnUse" x1="33.2057" y1="14.3355" x2="0.964" y2="13.9701" gradientTransform="matrix(1 0 0 1 0 2)">
	<stop  offset="0" style="stop-color:#00A99D"/>
	<stop  offset="0.3476" style="stop-color:#0B6A85"/>
	<stop  offset="0.6435" style="stop-color:#143B73"/>
	<stop  offset="0.87" style="stop-color:#191F68"/>
	<stop  offset="1" style="stop-color:#1B1464"/>
</linearGradient>
<path class="st0" d="M0.1,24.3c-0.5-1.6,0.9-3.8,1.2-4.2c1-1.6,1.5-1.2,2.4-2.5c1.3-2,0.6-3.3,1.8-5.1c1.3-2,3.1-2.4,3.6-2.5
	c1.9-0.4,2.2,0.7,3.6,0c1.5-0.7,1.3-2.1,3-3.4s3.4-1,4.2-0.8c0.4,0.1,2.1,0.6,3.6,2.5c1.4,1.9,1,2.9,2.4,5.1c1,1.5,1.6,1.5,2.5,2.3
	c0,0,0.5,0.3,1.1,1.1c1.3,1.4,3.7,7.1,2.4,9.3c-0.4,0.6-0.9,0.8-6.6,0c-4.4-0.7-4.4-0.8-6-0.8c-2.5,0.1-2.7,0.6-6,0.8
	c-2.9,0.2-2.4-0.3-4.8,0c-2.9,0.3-4.4,1-6.6,0C0.6,25.4,0.2,24.8,0.1,24.3z"/>
<linearGradient id="SVGID_2_" gradientUnits="userSpaceOnUse" x1="30.2172" y1="15.1814" x2="62.459" y2="15.5655" gradientTransform="matrix(1 0 0 1 0 2)">
	<stop  offset="0" style="stop-color:#00A99D"/>
	<stop  offset="0.3476" style="stop-color:#0B6A85"/>
	<stop  offset="0.6435" style="stop-color:#143B73"/>
	<stop  offset="0.87" style="stop-color:#191F68"/>
	<stop  offset="1" style="stop-color:#1B1464"/>
</linearGradient>
<path class="st1" d="M27.9,25.5c-0.5-1.6,0.9-3.8,1.2-4.2c1-1.6,1.5-1.2,2.4-2.5c1.3-1.9,0.6-3.2,1.8-5.1c1.3-2,3.1-2.4,3.6-2.5
	c1.9-0.4,2.2,0.7,3.6,0c1.5-0.7,1.3-2.1,3-3.4s3.4-1,4.2-0.8c0.4,0.1,2.1,0.6,3.6,2.5c1.4,1.9,1,2.9,2.4,5.1c1,1.5,1.6,1.5,2.5,2.3
	c0,0,0.5,0.3,1.1,1.1c1.3,1.4,3.7,7.1,2.4,9.3c-0.4,0.6-0.9,0.8-6.6,0c-4.4-0.7-4.4-0.8-6-0.8c-2.5,0.1-2.7,0.6-6,0.8
	c-2.9,0.2-2.4-0.3-4.8,0c-2.9,0.3-4.4,1-6.6,0C28.3,26.6,28,26,27.9,25.5z"/>
<linearGradient id="SVGID_3_" gradientUnits="userSpaceOnUse" x1="37.4289" y1="-1.2443" x2="24.4799" y2="38.0886" gradientTransform="matrix(1 0 0 1 0 2)">
	<stop  offset="0" style="stop-color:#00A99D"/>
	<stop  offset="0.3476" style="stop-color:#0B6A85"/>
	<stop  offset="0.6435" style="stop-color:#143B73"/>
	<stop  offset="0.87" style="stop-color:#191F68"/>
	<stop  offset="1" style="stop-color:#1B1464"/>
</linearGradient>
<path class="st2" d="M12.9,26.9c-0.5-1.6,0.9-3.8,1.2-4.2c1-1.6,1.5-1.2,2.4-2.5c1.3-1.9,0.6-3.2,1.8-5.1c1.3-2,3.1-2.4,3.6-2.5
	c1.9-0.4,2.2,0.7,3.6,0c1.5-0.7,1.3-2.1,3-3.4s3.4-1,4.2-0.8c0.4,0.1,2.1,0.6,3.6,2.5c1.4,1.9,1,2.9,2.4,5.1c1,1.5,1.6,1.5,2.5,2.3
	c0,0,0.5,0.3,1.1,1.1c1.3,1.4,3.7,7.1,2.4,9.3c-0.4,0.6-0.9,0.8-6.6,0c-4.4-0.7-4.4-0.8-6-0.8c-2.5,0.1-2.7,0.6-6,0.8
	c-2.9,0.2-2.4-0.3-4.8,0c-2.9,0.3-4.4,1-6.6,0C13.4,28,13,27.3,12.9,26.9z"/>
<linearGradient id="SVGID_4_" gradientUnits="userSpaceOnUse" x1="21.1936" y1="32.0126" x2="40.066" y2="32.0126" gradientTransform="matrix(-0.9987 5.187876e-02 -5.187876e-02 -0.9987 61.6611 63.9952)">
	<stop  offset="5.327789e-09" style="stop-color:#D4C300"/>
	<stop  offset="0.3476" style="stop-color:#FFEE2A"/>
	<stop  offset="0.6435" style="stop-color:#E9D000"/>
	<stop  offset="0.87" style="stop-color:#FFD66A"/>
	<stop  offset="0.9955" style="stop-color:#7F6700"/>
</linearGradient>
<polygon class="st3" points="21.7,47.4 36.3,29.5 30.7,26.6 38.3,21.9 34.2,20 25.2,27.7 30.9,30.8 20.7,46.9 "/>
<linearGradient id="SVGID_5_" gradientUnits="userSpaceOnUse" x1="15.3458" y1="31.4518" x2="11.5828" y2="42.8821" gradientTransform="matrix(0.585 -6.588418e-03 8.681628e-03 0.7708 15.5034 11.1948)">
	<stop  offset="0" style="stop-color:#00A99D"/>
	<stop  offset="0.3476" style="stop-color:#003499"/>
	<stop  offset="0.6435" style="stop-color:#00F4FF"/>
	<stop  offset="0.87" style="stop-color:#191F68"/>
	<stop  offset="1" style="stop-color:#1B1464"/>
</linearGradient>
<path class="st4" d="M25.2,40.4c0,1.2-0.7,2.2-1.7,2.2s-1.7-1-1.7-2.2c0-0.3,0.1-0.7,0.4-1.5c0.6-1.4,0.8-2.1,1.2-2.1
	c0.3,0,0.6,0.7,1.2,2.1C25.2,40.1,25.2,40.3,25.2,40.4z"/>
<linearGradient id="SVGID_6_" gradientUnits="userSpaceOnUse" x1="-1.2126" y1="24.0052" x2="-4.9757" y2="35.4356" gradientTransform="matrix(0.585 -6.588418e-03 8.681628e-03 0.7708 15.5034 11.1948)">
	<stop  offset="0" style="stop-color:#00A99D"/>
	<stop  offset="0.3476" style="stop-color:#003499"/>
	<stop  offset="0.6435" style="stop-color:#00F4FF"/>
	<stop  offset="0.87" style="stop-color:#191F68"/>
	<stop  offset="1" style="stop-color:#1B1464"/>
</linearGradient>
<path class="st5" d="M15.5,34.8c0,1.2-0.7,2.2-1.7,2.2c-0.9,0-1.7-1-1.7-2.2c0-0.3,0.1-0.7,0.4-1.5c0.6-1.4,0.8-2.1,1.2-2.1
	c0.3,0,0.6,0.7,1.2,2.1C15.4,34.4,15.5,34.6,15.5,34.8z"/>
<linearGradient id="SVGID_7_" gradientUnits="userSpaceOnUse" x1="35.8831" y1="31.6273" x2="32.12" y2="43.0577" gradientTransform="matrix(0.585 -6.588418e-03 8.681628e-03 0.7708 15.5034 11.1948)">
	<stop  offset="0" style="stop-color:#00A99D"/>
	<stop  offset="0.3476" style="stop-color:#003499"/>
	<stop  offset="0.6435" style="stop-color:#00F4FF"/>
	<stop  offset="0.87" style="stop-color:#191F68"/>
	<stop  offset="1" style="stop-color:#1B1464"/>
</linearGradient>
<path class="st6" d="M37.2,40.4c0,1.2-0.7,2.2-1.7,2.2c-0.9,0-1.7-1-1.7-2.2c0-0.3,0.1-0.7,0.4-1.5c0.6-1.4,0.8-2.1,1.2-2.1
	c0.3,0,0.6,0.7,1.2,2.1C37.2,40.1,37.2,40.3,37.2,40.4z"/>
<linearGradient id="SVGID_8_" gradientUnits="userSpaceOnUse" x1="47.3787" y1="24.876" x2="43.6156" y2="36.3063" gradientTransform="matrix(0.585 -6.588418e-03 8.681628e-03 0.7708 15.5034 11.1948)">
	<stop  offset="0" style="stop-color:#00A99D"/>
	<stop  offset="0.3476" style="stop-color:#003499"/>
	<stop  offset="0.6435" style="stop-color:#00F4FF"/>
	<stop  offset="0.87" style="stop-color:#191F68"/>
	<stop  offset="1" style="stop-color:#1B1464"/>
</linearGradient>
<path class="st7" d="M43.9,35.1c0,1.2-0.7,2.2-1.7,2.2c-0.9,0-1.7-1-1.7-2.2c0-0.3,0.1-0.7,0.4-1.5c0.6-1.4,0.8-2.1,1.2-2.1
	c0.3,0,0.6,0.7,1.2,2.1C43.9,34.8,43.9,35,43.9,35.1z"/>
<linearGradient id="SVGID_9_" gradientUnits="userSpaceOnUse" x1="24.6759" y1="22.8643" x2="20.9129" y2="34.2947" gradientTransform="matrix(0.585 -6.588418e-03 8.681628e-03 0.7708 15.5034 11.1948)">
	<stop  offset="0" style="stop-color:#00A99D"/>
	<stop  offset="0.3476" style="stop-color:#003499"/>
	<stop  offset="0.6435" style="stop-color:#00F4FF"/>
	<stop  offset="0.87" style="stop-color:#191F68"/>
	<stop  offset="1" style="stop-color:#1B1464"/>
</linearGradient>
<path class="st8" d="M30.6,33.7c0,1.2-0.7,2.2-1.7,2.2c-0.9,0-1.7-1-1.7-2.2c0-0.3,0.1-0.7,0.4-1.5c0.6-1.4,0.8-2.1,1.2-2.1
	c0.3,0,0.6,0.7,1.2,2.1C30.6,33.4,30.6,33.6,30.6,33.7z"/>
</svg>
