<?xml version="1.0" encoding="utf-8"?>
<!-- Generator: Adobe Illustrator 25.3.1, SVG Export Plug-In . SVG Version: 6.00 Build 0)  -->
<svg version="1.1" id="Слой_1" xmlns="http://www.w3.org/2000/svg" xmlns:xlink="http://www.w3.org/1999/xlink" x="0px" y="0px"
	 viewBox="0 0 60 50" style="enable-background:new 0 0 60 50;" xml:space="preserve">
<style type="text/css">
	.st0{fill:url(#SVGID_1_);stroke:#000000;stroke-width:0.1;stroke-miterlimit:10;}
	.st1{fill:url(#SVGID_2_);stroke:#000000;stroke-width:0.1;stroke-miterlimit:10;}
	.st2{fill:url(#SVGID_3_);stroke:#000000;stroke-width:0.1;stroke-miterlimit:10;}
	.st3{fill:url(#SVGID_4_);stroke:#000000;stroke-width:0.25;stroke-miterlimit:10;}
	.st4{fill:url(#SVGID_5_);stroke:#000000;stroke-width:0.25;stroke-miterlimit:10;}
	.st5{fill:url(#SVGID_6_);stroke:#000000;stroke-width:0.25;stroke-miterlimit:10;}
	.st6{fill:url(#SVGID_7_);stroke:#000000;stroke-width:0.25;stroke-miterlimit:10;}
	.st7{fill:url(#SVGID_8_);stroke:#000000;stroke-width:0.25;stroke-miterlimit:10;}
	.st8{fill:url(#SVGID_9_);stroke:#000000;stroke-width:0.25;stroke-miterlimit:10;}
	.st9{fill:url(#SVGID_10_);stroke:#000000;stroke-width:0.25;stroke-miterlimit:10;}
	.st10{fill:url(#SVGID_11_);stroke:#000000;stroke-width:0.25;stroke-miterlimit:10;}
	.st11{fill:url(#SVGID_12_);stroke:#000000;stroke-width:0.25;stroke-miterlimit:10;}
	.st12{fill:url(#SVGID_13_);stroke:#000000;stroke-width:0.25;stroke-miterlimit:10;}
	.st13{fill:url(#SVGID_14_);stroke:#000000;stroke-width:0.25;stroke-miterlimit:10;}
	.st14{fill:url(#SVGID_15_);stroke:#000000;stroke-width:0.25;stroke-miterlimit:10;}
	.st15{fill:url(#SVGID_16_);stroke:#000000;stroke-width:0.25;stroke-miterlimit:10;}
	.st16{fill:url(#SVGID_17_);stroke:#000000;stroke-width:0.25;stroke-miterlimit:10;}
	.st17{fill:url(#SVGID_18_);stroke:#000000;stroke-width:0.25;stroke-miterlimit:10;}
</style>
<linearGradient id="SVGID_1_" gradientUnits="userSpaceOnUse" x1="33.2057" y1="14.3355" x2="0.964" y2="13.9701" gradientTransform="matrix(1 0 0 1 0 2)">
	<stop  offset="0" style="stop-color:#00A99D"/>
	<stop  offset="0.3476" style="stop-color:#0B6A85"/>
	<stop  offset="0.6435" style="stop-color:#143B73"/>
	<stop  offset="0.87" style="stop-color:#191F68"/>
	<stop  offset="1" style="stop-color:#1B1464"/>
</linearGradient>
<path class="st0" d="M0.1,24.3c-0.5-1.6,0.9-3.8,1.2-4.2c1-1.6,1.5-1.2,2.4-2.5c1.3-2,0.6-3.3,1.8-5.1c1.3-2,3.1-2.4,3.6-2.5
	c1.9-0.4,2.2,0.7,3.6,0c1.5-0.7,1.3-2.1,3-3.4s3.4-1,4.2-0.8c0.4,0.1,2.1,0.6,3.6,2.5c1.4,1.9,1,2.9,2.4,5.1c1,1.5,1.6,1.5,2.5,2.3
	c0,0,0.5,0.3,1.1,1.1c1.3,1.4,3.7,7.1,2.4,9.3c-0.4,0.6-0.9,0.8-6.6,0c-4.4-0.7-4.4-0.8-6-0.8c-2.5,0.1-2.7,0.6-6,0.8
	c-2.9,0.2-2.4-0.3-4.8,0c-2.9,0.3-4.4,1-6.6,0C0.6,25.4,0.2,24.8,0.1,24.3z"/>
<linearGradient id="SVGID_2_" gradientUnits="userSpaceOnUse" x1="30.2172" y1="15.1814" x2="62.459" y2="15.5655" gradientTransform="matrix(1 0 0 1 0 2)">
	<stop  offset="0" style="stop-color:#00A99D"/>
	<stop  offset="0.3476" style="stop-color:#0B6A85"/>
	<stop  offset="0.6435" style="stop-color:#143B73"/>
	<stop  offset="0.87" style="stop-color:#191F68"/>
	<stop  offset="1" style="stop-color:#1B1464"/>
</linearGradient>
<path class="st1" d="M27.9,25.5c-0.5-1.6,0.9-3.8,1.2-4.2c1-1.6,1.5-1.2,2.4-2.5c1.3-1.9,0.6-3.2,1.8-5.1c1.3-2,3.1-2.4,3.6-2.5
	c1.9-0.4,2.2,0.7,3.6,0c1.5-0.7,1.3-2.1,3-3.4s3.4-1,4.2-0.8c0.4,0.1,2.1,0.6,3.6,2.5c1.4,1.9,1,2.9,2.4,5.1c1,1.5,1.6,1.5,2.5,2.3
	c0,0,0.5,0.3,1.1,1.1c1.3,1.4,3.7,7.1,2.4,9.3c-0.4,0.6-0.9,0.8-6.6,0c-4.4-0.7-4.4-0.8-6-0.8c-2.5,0.1-2.7,0.6-6,0.8
	c-2.9,0.2-2.4-0.3-4.8,0c-2.9,0.3-4.4,1-6.6,0C28.3,26.6,28,26,27.9,25.5z"/>
<linearGradient id="SVGID_3_" gradientUnits="userSpaceOnUse" x1="37.4289" y1="-1.2443" x2="24.4799" y2="38.0886" gradientTransform="matrix(1 0 0 1 0 2)">
	<stop  offset="0" style="stop-color:#00A99D"/>
	<stop  offset="0.3476" style="stop-color:#0B6A85"/>
	<stop  offset="0.6435" style="stop-color:#143B73"/>
	<stop  offset="0.87" style="stop-color:#191F68"/>
	<stop  offset="1" style="stop-color:#1B1464"/>
</linearGradient>
<path class="st2" d="M12.9,26.9c-0.5-1.6,0.9-3.8,1.2-4.2c1-1.6,1.5-1.2,2.4-2.5c1.3-1.9,0.6-3.2,1.8-5.1c1.3-2,3.1-2.4,3.6-2.5
	c1.9-0.4,2.2,0.7,3.6,0c1.5-0.7,1.3-2.1,3-3.4s3.4-1,4.2-0.8c0.4,0.1,2.1,0.6,3.6,2.5c1.4,1.9,1,2.9,2.4,5.1c1,1.5,1.6,1.5,2.5,2.3
	c0,0,0.5,0.3,1.1,1.1c1.3,1.4,3.7,7.1,2.4,9.3c-0.4,0.6-0.9,0.8-6.6,0c-4.4-0.7-4.4-0.8-6-0.8c-2.5,0.1-2.7,0.6-6,0.8
	c-2.9,0.2-2.4-0.3-4.8,0c-2.9,0.3-4.4,1-6.6,0C13.4,28,13,27.3,12.9,26.9z"/>
<linearGradient id="SVGID_4_" gradientUnits="userSpaceOnUse" x1="32.6321" y1="24.7914" x2="28.869" y2="36.2217" gradientTransform="matrix(0.585 -6.588418e-03 8.681628e-03 0.7708 15.5034 11.1948)">
	<stop  offset="0" style="stop-color:#00A99D"/>
	<stop  offset="0.3476" style="stop-color:#003499"/>
	<stop  offset="0.6435" style="stop-color:#00F4FF"/>
	<stop  offset="0.87" style="stop-color:#191F68"/>
	<stop  offset="1" style="stop-color:#1B1464"/>
</linearGradient>
<path class="st3" d="M35.3,35.2c0,1.2-0.7,2.2-1.7,2.2c-0.9,0-1.7-1-1.7-2.2c0-0.3,0.1-0.7,0.4-1.5c0.6-1.4,0.8-2.1,1.2-2.1
	c0.3,0,0.6,0.7,1.2,2.1C35.3,34.8,35.3,35,35.3,35.2z"/>
<linearGradient id="SVGID_5_" gradientUnits="userSpaceOnUse" x1="22.5644" y1="24.7053" x2="18.8014" y2="36.1357" gradientTransform="matrix(0.585 -6.588418e-03 8.681628e-03 0.7708 15.5034 11.1948)">
	<stop  offset="0" style="stop-color:#00A99D"/>
	<stop  offset="0.3476" style="stop-color:#003499"/>
	<stop  offset="0.6435" style="stop-color:#00F4FF"/>
	<stop  offset="0.87" style="stop-color:#191F68"/>
	<stop  offset="1" style="stop-color:#1B1464"/>
</linearGradient>
<path class="st4" d="M29.4,35.2c0,1.2-0.7,2.2-1.7,2.2c-0.9,0-1.7-1-1.7-2.2c0-0.3,0.1-0.7,0.4-1.5c0.6-1.4,0.8-2.1,1.2-2.1
	c0.3,0,0.6,0.7,1.2,2.1C29.4,34.8,29.4,35,29.4,35.2z"/>
<linearGradient id="SVGID_6_" gradientUnits="userSpaceOnUse" x1="10.9497" y1="24.2928" x2="7.1867" y2="35.7232" gradientTransform="matrix(0.5836 -6.572672e-03 8.681628e-03 0.7708 15.5196 11.1946)">
	<stop  offset="0" style="stop-color:#00A99D"/>
	<stop  offset="0.3476" style="stop-color:#003499"/>
	<stop  offset="0.6435" style="stop-color:#00F4FF"/>
	<stop  offset="0.87" style="stop-color:#191F68"/>
	<stop  offset="1" style="stop-color:#1B1464"/>
</linearGradient>
<path class="st5" d="M22.6,34.9c0,1.2-0.7,2.2-1.7,2.2c-0.9,0-1.7-1-1.7-2.2c0-0.3,0.1-0.7,0.4-1.5c0.6-1.4,0.8-2.1,1.2-2.1
	c0.3,0,0.6,0.7,1.2,2.1C22.6,34.6,22.6,34.8,22.6,34.9z"/>
<linearGradient id="SVGID_7_" gradientUnits="userSpaceOnUse" x1="-5.476381e-02" y1="26.1033" x2="-3.8178" y2="37.5337" gradientTransform="matrix(0.585 -6.588418e-03 8.681628e-03 0.7708 15.5034 11.1948)">
	<stop  offset="0" style="stop-color:#00A99D"/>
	<stop  offset="0.3476" style="stop-color:#003499"/>
	<stop  offset="0.6435" style="stop-color:#00F4FF"/>
	<stop  offset="0.87" style="stop-color:#191F68"/>
	<stop  offset="1" style="stop-color:#1B1464"/>
</linearGradient>
<path class="st6" d="M16.2,36.4c0,1.2-0.7,2.2-1.7,2.2c-0.9,0-1.7-1-1.7-2.2c0-0.3,0.1-0.7,0.4-1.5c0.6-1.4,0.8-2.1,1.2-2.1
	c0.3,0,0.6,0.7,1.2,2.1C16.1,36,16.2,36.2,16.2,36.4z"/>
<linearGradient id="SVGID_8_" gradientUnits="userSpaceOnUse" x1="-9.6981" y1="22.2766" x2="-13.4611" y2="33.7069" gradientTransform="matrix(0.585 -6.588418e-03 8.681628e-03 0.7708 15.5034 11.1948)">
	<stop  offset="0" style="stop-color:#00A99D"/>
	<stop  offset="0.3476" style="stop-color:#003499"/>
	<stop  offset="0.6435" style="stop-color:#00F4FF"/>
	<stop  offset="0.87" style="stop-color:#191F68"/>
	<stop  offset="1" style="stop-color:#1B1464"/>
</linearGradient>
<path class="st7" d="M10.5,33.5c0,1.2-0.7,2.2-1.7,2.2c-0.9,0-1.7-1-1.7-2.2c0-0.3,0.1-0.7,0.4-1.5c0.6-1.4,0.8-2.1,1.2-2.1
	c0.3,0,0.6,0.7,1.2,2.1C10.5,33.1,10.5,33.4,10.5,33.5z"/>
<linearGradient id="SVGID_9_" gradientUnits="userSpaceOnUse" x1="50.2875" y1="24.9423" x2="46.5244" y2="36.3726" gradientTransform="matrix(0.585 -6.588418e-03 8.681628e-03 0.7708 15.5034 11.1948)">
	<stop  offset="0" style="stop-color:#00A99D"/>
	<stop  offset="0.3476" style="stop-color:#003499"/>
	<stop  offset="0.6435" style="stop-color:#00F4FF"/>
	<stop  offset="0.87" style="stop-color:#191F68"/>
	<stop  offset="1" style="stop-color:#1B1464"/>
</linearGradient>
<path class="st8" d="M45.6,35.2c0,1.2-0.7,2.2-1.7,2.2c-0.9,0-1.7-1-1.7-2.2c0-0.3,0.1-0.7,0.4-1.5c0.6-1.4,0.8-2.1,1.2-2.1
	c0.3,0,0.6,0.7,1.2,2.1C45.6,34.8,45.6,35,45.6,35.2z"/>
<linearGradient id="SVGID_10_" gradientUnits="userSpaceOnUse" x1="41.7167" y1="24.5557" x2="37.9536" y2="35.9861" gradientTransform="matrix(0.585 -6.588418e-03 8.681628e-03 0.7708 15.5034 11.1948)">
	<stop  offset="0" style="stop-color:#00A99D"/>
	<stop  offset="0.3476" style="stop-color:#003499"/>
	<stop  offset="0.6435" style="stop-color:#00F4FF"/>
	<stop  offset="0.87" style="stop-color:#191F68"/>
	<stop  offset="1" style="stop-color:#1B1464"/>
</linearGradient>
<path class="st9" d="M40.6,34.9c0,1.2-0.7,2.2-1.7,2.2c-0.9,0-1.7-1-1.7-2.2c0-0.3,0.1-0.7,0.4-1.5c0.6-1.4,0.8-2.1,1.2-2.1
	c0.3,0,0.6,0.7,1.2,2.1C40.6,34.6,40.6,34.8,40.6,34.9z"/>
<linearGradient id="SVGID_11_" gradientUnits="userSpaceOnUse" x1="58.8786" y1="22.4901" x2="55.1156" y2="33.9204" gradientTransform="matrix(0.585 -6.588418e-03 8.681628e-03 0.7708 15.5034 11.1948)">
	<stop  offset="0" style="stop-color:#00A99D"/>
	<stop  offset="0.3476" style="stop-color:#003499"/>
	<stop  offset="0.6435" style="stop-color:#00F4FF"/>
	<stop  offset="0.87" style="stop-color:#191F68"/>
	<stop  offset="1" style="stop-color:#1B1464"/>
</linearGradient>
<path class="st10" d="M50.6,33.2c0,1.2-0.7,2.2-1.7,2.2c-0.9,0-1.7-1-1.7-2.2c0-0.3,0.1-0.7,0.4-1.5c0.6-1.4,0.8-2.1,1.2-2.1
	c0.3,0,0.6,0.7,1.2,2.1C50.6,32.9,50.6,33.1,50.6,33.2z"/>
<linearGradient id="SVGID_12_" gradientUnits="userSpaceOnUse" x1="6.7734" y1="33.6503" x2="3.0104" y2="45.0807" gradientTransform="matrix(0.585 -6.588418e-03 8.681628e-03 0.7708 15.5034 11.1948)">
	<stop  offset="0" style="stop-color:#00A99D"/>
	<stop  offset="0.3476" style="stop-color:#003499"/>
	<stop  offset="0.6435" style="stop-color:#00F4FF"/>
	<stop  offset="0.87" style="stop-color:#191F68"/>
	<stop  offset="1" style="stop-color:#1B1464"/>
</linearGradient>
<path class="st11" d="M20.2,42.2c0,1.2-0.7,2.2-1.7,2.2c-0.9,0-1.7-1-1.7-2.2c0-0.3,0.1-0.7,0.4-1.5c0.6-1.4,0.8-2.1,1.2-2.1
	c0.3,0,0.6,0.7,1.2,2.1C20.2,41.8,20.2,42,20.2,42.2z"/>
<linearGradient id="SVGID_13_" gradientUnits="userSpaceOnUse" x1="17.1714" y1="33.7392" x2="13.4083" y2="45.1695" gradientTransform="matrix(0.585 -6.588418e-03 8.681628e-03 0.7708 15.5034 11.1948)">
	<stop  offset="0" style="stop-color:#00A99D"/>
	<stop  offset="0.3476" style="stop-color:#003499"/>
	<stop  offset="0.6435" style="stop-color:#00F4FF"/>
	<stop  offset="0.87" style="stop-color:#191F68"/>
	<stop  offset="1" style="stop-color:#1B1464"/>
</linearGradient>
<path class="st12" d="M26.3,42.2c0,1.2-0.7,2.2-1.7,2.2c-0.9,0-1.7-1-1.7-2.2c0-0.3,0.1-0.7,0.4-1.5c0.6-1.4,0.8-2.1,1.2-2.1
	c0.3,0,0.6,0.7,1.2,2.1C26.3,41.8,26.3,42,26.3,42.2z"/>
<linearGradient id="SVGID_14_" gradientUnits="userSpaceOnUse" x1="27.4413" y1="32.5902" x2="23.6783" y2="44.0206" gradientTransform="matrix(0.585 -6.588418e-03 8.681628e-03 0.7708 15.5034 11.1948)">
	<stop  offset="0" style="stop-color:#00A99D"/>
	<stop  offset="0.3476" style="stop-color:#003499"/>
	<stop  offset="0.6435" style="stop-color:#00F4FF"/>
	<stop  offset="0.87" style="stop-color:#191F68"/>
	<stop  offset="1" style="stop-color:#1B1464"/>
</linearGradient>
<path class="st13" d="M32.3,41.2c0,1.2-0.7,2.2-1.7,2.2c-0.9,0-1.7-1-1.7-2.2c0-0.3,0.1-0.7,0.4-1.5c0.6-1.4,0.8-2.1,1.2-2.1
	c0.3,0,0.6,0.7,1.2,2.1C32.3,40.9,32.3,41.1,32.3,41.2z"/>
<linearGradient id="SVGID_15_" gradientUnits="userSpaceOnUse" x1="38.3345" y1="32.6833" x2="34.5715" y2="44.1137" gradientTransform="matrix(0.585 -6.588418e-03 8.681628e-03 0.7708 15.5034 11.1948)">
	<stop  offset="0" style="stop-color:#00A99D"/>
	<stop  offset="0.3476" style="stop-color:#003499"/>
	<stop  offset="0.6435" style="stop-color:#00F4FF"/>
	<stop  offset="0.87" style="stop-color:#191F68"/>
	<stop  offset="1" style="stop-color:#1B1464"/>
</linearGradient>
<path class="st14" d="M38.7,41.2c0,1.2-0.7,2.2-1.7,2.2c-0.9,0-1.7-1-1.7-2.2c0-0.3,0.1-0.7,0.4-1.5c0.6-1.4,0.8-2.1,1.2-2.1
	c0.3,0,0.6,0.7,1.2,2.1C38.7,40.9,38.7,41.1,38.7,41.2z"/>
<linearGradient id="SVGID_16_" gradientUnits="userSpaceOnUse" x1="47.3961" y1="33.9975" x2="43.6331" y2="45.4279" gradientTransform="matrix(0.585 -6.588418e-03 8.681628e-03 0.7708 15.5034 11.1948)">
	<stop  offset="0" style="stop-color:#00A99D"/>
	<stop  offset="0.3476" style="stop-color:#003499"/>
	<stop  offset="0.6435" style="stop-color:#00F4FF"/>
	<stop  offset="0.87" style="stop-color:#191F68"/>
	<stop  offset="1" style="stop-color:#1B1464"/>
</linearGradient>
<path class="st15" d="M44,42.2c0,1.2-0.7,2.2-1.7,2.2c-0.9,0-1.7-1-1.7-2.2c0-0.3,0.1-0.7,0.4-1.5c0.6-1.4,0.8-2.1,1.2-2.1
	c0.3,0,0.6,0.7,1.2,2.1C44,41.8,44,42,44,42.2z"/>
<linearGradient id="SVGID_17_" gradientUnits="userSpaceOnUse" x1="56.7821" y1="31.4153" x2="53.019" y2="42.8456" gradientTransform="matrix(0.585 -6.588418e-03 8.681628e-03 0.7708 15.5034 11.1948)">
	<stop  offset="0" style="stop-color:#00A99D"/>
	<stop  offset="0.3476" style="stop-color:#003499"/>
	<stop  offset="0.6435" style="stop-color:#00F4FF"/>
	<stop  offset="0.87" style="stop-color:#191F68"/>
	<stop  offset="1" style="stop-color:#1B1464"/>
</linearGradient>
<path class="st16" d="M49.5,40.1c0,1.2-0.7,2.2-1.7,2.2c-0.9,0-1.7-1-1.7-2.2c0-0.3,0.1-0.7,0.4-1.5c0.6-1.4,0.8-2.1,1.2-2.1
	c0.3,0,0.6,0.7,1.2,2.1C49.4,39.8,49.5,40,49.5,40.1z"/>
<linearGradient id="SVGID_18_" gradientUnits="userSpaceOnUse" x1="-5.9565" y1="31.6369" x2="-9.7195" y2="43.0672" gradientTransform="matrix(0.585 -6.588418e-03 8.681628e-03 0.7708 15.5034 11.1948)">
	<stop  offset="0" style="stop-color:#00A99D"/>
	<stop  offset="0.3476" style="stop-color:#003499"/>
	<stop  offset="0.6435" style="stop-color:#00F4FF"/>
	<stop  offset="0.87" style="stop-color:#191F68"/>
	<stop  offset="1" style="stop-color:#1B1464"/>
</linearGradient>
<path class="st17" d="M12.8,40.7c0,1.2-0.7,2.2-1.7,2.2c-0.9,0-1.7-1-1.7-2.2c0-0.3,0.1-0.7,0.4-1.5c0.6-1.4,0.8-2.1,1.2-2.1
	c0.3,0,0.6,0.7,1.2,2.1C12.7,40.3,12.8,40.6,12.8,40.7z"/>
</svg>
