<?xml version="1.0" encoding="utf-8"?>
<!-- Generator: Adobe Illustrator 25.3.1, SVG Export Plug-In . SVG Version: 6.00 Build 0)  -->
<svg version="1.1" id="Слой_1" xmlns="http://www.w3.org/2000/svg" xmlns:xlink="http://www.w3.org/1999/xlink" x="0px" y="0px"
	 viewBox="0 0 60 30" style="enable-background:new 0 0 60 30;" xml:space="preserve">
<style type="text/css">
	.st0{fill:url(#SVGID_1_);}
	.st1{fill:url(#SVGID_2_);stroke:#000000;stroke-width:0.1;stroke-miterlimit:10;}
	.st2{fill:url(#SVGID_3_);stroke:#000000;stroke-width:0.1;stroke-miterlimit:10;}
	.st3{fill:url(#SVGID_4_);stroke:#000000;stroke-width:0.1;stroke-miterlimit:10;}
</style>
<g>
	
		<linearGradient id="SVGID_1_" gradientUnits="userSpaceOnUse" x1="24.3499" y1="-6.389613e-02" x2="35.7884" y2="33.9843" gradientTransform="matrix(1 0 0 -1 0 32)">
		<stop  offset="0" style="stop-color:#F15A24"/>
		<stop  offset="0.1677" style="stop-color:#F48623"/>
		<stop  offset="0.3376" style="stop-color:#F7AB22"/>
		<stop  offset="0.5077" style="stop-color:#F9C922"/>
		<stop  offset="0.6758" style="stop-color:#FBDD21"/>
		<stop  offset="0.841" style="stop-color:#FCEA21"/>
		<stop  offset="1" style="stop-color:#FCEE21"/>
	</linearGradient>
	<ellipse class="st0" cx="30.1" cy="15" rx="18" ry="15"/>
	<path d="M30.1,0.1C40,0.1,48,6.8,48,15s-8,14.9-17.9,14.9S12.2,23.2,12.2,15S20.2,0.1,30.1,0.1 M30.1,0c-10,0-18,6.7-18,15
		s8,15,18,15s18-6.7,18-15S40,0,30.1,0L30.1,0z"/>
</g>
<linearGradient id="SVGID_2_" gradientUnits="userSpaceOnUse" x1="33.2131" y1="12.4212" x2="0.9743" y2="12.7866" gradientTransform="matrix(1 0 0 -1 0 32)">
	<stop  offset="0" style="stop-color:#00A99D"/>
	<stop  offset="0.3476" style="stop-color:#0B6A85"/>
	<stop  offset="0.6435" style="stop-color:#143B73"/>
	<stop  offset="0.87" style="stop-color:#191F68"/>
	<stop  offset="1" style="stop-color:#1B1464"/>
</linearGradient>
<path class="st1" d="M0.1,25.2c-0.5-1.1,0.9-2.7,1.2-3c1-1.1,1.5-0.8,2.4-1.8C5,19,4.3,18.1,5.5,16.8c1.3-1.4,3.1-1.7,3.6-1.8
	c1.9-0.3,2.2,0.5,3.6,0c1.5-0.5,1.3-1.5,3-2.4c1.7-0.9,3.4-0.7,4.2-0.6c0.4,0.1,2.1,0.4,3.6,1.8c1.4,1.3,1,2.1,2.4,3.6
	c1,1.1,1.6,1.1,2.5,1.6c0,0,0.5,0.2,1.1,0.8c1.3,1,3.7,5,2.4,6.6c-0.4,0.4-0.9,0.6-6.6,0c-4.4-0.5-4.4-0.6-6-0.6
	c-2.5,0.1-2.7,0.4-6,0.6c-2.9,0.1-2.4-0.2-4.8,0c-2.9,0.2-4.4,0.7-6.6,0C0.6,26,0.2,25.6,0.1,25.2z"/>
<linearGradient id="SVGID_3_" gradientUnits="userSpaceOnUse" x1="30.2254" y1="13.6749" x2="62.4642" y2="13.2908" gradientTransform="matrix(1 0 0 -1 0 32)">
	<stop  offset="0" style="stop-color:#00A99D"/>
	<stop  offset="0.3476" style="stop-color:#0B6A85"/>
	<stop  offset="0.6435" style="stop-color:#143B73"/>
	<stop  offset="0.87" style="stop-color:#191F68"/>
	<stop  offset="1" style="stop-color:#1B1464"/>
</linearGradient>
<path class="st2" d="M27.9,24.3c-0.5-1.1,0.9-2.7,1.2-3c1-1.1,1.5-0.8,2.4-1.8c1.3-1.4,0.6-2.3,1.8-3.6c1.3-1.4,3.1-1.7,3.6-1.8
	c1.9-0.3,2.2,0.5,3.6,0c1.5-0.5,1.3-1.5,3-2.4c1.7-0.9,3.4-0.7,4.2-0.6c0.4,0.1,2.1,0.4,3.6,1.8c1.4,1.3,1,2.1,2.4,3.6
	c1,1.1,1.6,1.1,2.5,1.6c0,0,0.5,0.2,1.1,0.8c1.3,1,3.7,5,2.4,6.6c-0.4,0.4-0.9,0.6-6.6,0c-4.4-0.5-4.4-0.6-6-0.6
	c-2.5,0.1-2.7,0.4-6,0.6c-2.9,0.1-2.4-0.2-4.8,0c-2.9,0.2-4.4,0.7-6.6,0C28.3,25.1,28,24.6,27.9,24.3z"/>
<linearGradient id="SVGID_4_" gradientUnits="userSpaceOnUse" x1="36.4645" y1="24.864" x2="26.3817" y2="-5.7626" gradientTransform="matrix(1 0 0 -1 0 32)">
	<stop  offset="0" style="stop-color:#00A99D"/>
	<stop  offset="0.3476" style="stop-color:#0B6A85"/>
	<stop  offset="0.6435" style="stop-color:#143B73"/>
	<stop  offset="0.87" style="stop-color:#191F68"/>
	<stop  offset="1" style="stop-color:#1B1464"/>
</linearGradient>
<path class="st3" d="M14.1,26.7c-0.5-1.1,0.9-2.7,1.2-3c1-1.1,1.5-0.8,2.4-1.8c1.3-1.4,0.6-2.3,1.8-3.6c1.3-1.4,3.1-1.7,3.6-1.8
	c1.9-0.3,2.2,0.5,3.6,0c1.5-0.5,1.3-1.5,3-2.4c1.7-0.9,3.4-0.7,4.2-0.6c0.4,0.1,2.1,0.4,3.6,1.8c1.4,1.3,1,2.1,2.4,3.6
	c1,1.1,1.6,1.1,2.5,1.6c0,0,0.5,0.2,1.1,0.8c1.3,1,3.7,5,2.4,6.6c-0.4,0.4-0.9,0.6-6.6,0c-4.4-0.5-4.4-0.6-6-0.6
	c-2.5,0.1-2.7,0.4-6,0.6c-2.9,0.1-2.4-0.2-4.8,0c-2.9,0.2-4.4,0.7-6.6,0C14.6,27.5,14.2,27,14.1,26.7z"/>
</svg>
