<?xml version="1.0" encoding="utf-8"?>
<!-- Generator: Adobe Illustrator 25.3.1, SVG Export Plug-In . SVG Version: 6.00 Build 0)  -->
<svg version="1.1" id="Слой_1" xmlns="http://www.w3.org/2000/svg" xmlns:xlink="http://www.w3.org/1999/xlink" x="0px" y="0px"
	 viewBox="0 0 60 50" style="enable-background:new 0 0 60 50;" xml:space="preserve">
<style type="text/css">
	.st0{fill:url(#SVGID_1_);stroke:#000000;stroke-width:0.25;stroke-miterlimit:10;}
	.st1{fill:#FFFFFF;stroke:#000000;stroke-width:0.25;stroke-miterlimit:10;}
</style>
<image style="display:none;overflow:visible;" width="1300" height="1390" xlink:href="EEC33257.jpg"  transform="matrix(4.615385e-02 0 0 3.597122e-02 0 0)">
</image>
<linearGradient id="SVGID_1_" gradientUnits="userSpaceOnUse" x1="1" y1="25" x2="59" y2="25">
	<stop  offset="2.131116e-07" style="stop-color:#00FFFF"/>
	<stop  offset="0.3476" style="stop-color:#00A99D"/>
	<stop  offset="0.6435" style="stop-color:#29ABE2"/>
	<stop  offset="0.87" style="stop-color:#00A99D"/>
	<stop  offset="1" style="stop-color:#2E3192"/>
</linearGradient>
<path class="st0" d="M5.5,13.2c0.4,2.2,0.7,4.4,1.1,6.7l6.7-1.1l1.1,1.1L7.7,21l1.1,2.2l10-2.2l4.2,2.2h-5.3l-3.3,2.2l2.7,1.1h5.1
	l-4.5,2.2l-10-2.2l-2.2,2.2l7.8,2.2L11,32.1l-5.6-2.2L1,36.5l10,2.2l2.2-5.5h2.2l-3.2,5.5h-0.2l3.3,1.1l3.3-8.9l4.5-1.1L20,33.2v3.3
	l5.6-2.2l2.2-3.3v4.4l-8.9,5.5l2.2,2.2l6.7-5.5l-1.1,3.3l-5.6,3.3l6.7,4.7l6.7-4.7L30,40.9l1.1-3.3l4.5,4.4l2.2-1.1l-6.7-5.5V31
	l3.3,3.3l2.2,1.1l1.1-2.5l-2.2-4.2L40,31l2.2,8.9l3.3-1.1l-1.1-5.5l2.2,1.1v4.5l10-1.2l-2.2-7.8l-7.8,2.2L45.6,31l7.8-2.2l-0.6-2.2
	l-10.6,2.2l-4.5-2.2h6.7l3.3-1.1l-4.5-2.2h-5.6l5.6-2.2l10,2.2l1.1-2.2l-7.8-2.2l2.2-1.1l6.7,2.2l3.3-6.7L50.1,11l-2.2,5.5l-2.2,1.1
	l2.2-6.7l-2.2-1.1l-4.5,8.9L36.7,21l3.3-4.4v-3.3l-4.5,2.2l-2.2,3.3v-4.4l8.9-5.5L40,6.5L33.3,11V9.9l5.6-4.4L33.3,1l-6.7,4.4
	L30,9.9V11l-5.1-4.1l-0.4-0.4l-1.1,2.2l6.7,6.7l-1.1,3.3l-2.2-3.3l-3.3-2.2l-1.1,3.3l2.2,3.3L20,18.8l-2.2-8.9L15.5,11l1.1,5.5h-1.1
	L13.3,11C10.7,11.7,8.1,12.5,5.5,13.2z"/>
<path class="st1" d="M8.8,14.3v2.2c1.1,0,2.2,0,3.3,0c-0.3-0.7-0.7-1.5-1-2.2H8.8z"/>
<polygon class="st1" points="7.7,33.2 6.6,35.4 6.6,35.4 9,35.4 9.9,33.2 "/>
<polygon class="st1" points="31.1,22.1 26.7,23.2 26.7,26.5 30,28.1 33.3,26.5 34.5,23.2 "/>
<polygon class="st1" points="49,33.2 49,35.4 52.3,35.4 51.3,33.2 "/>
<polygon class="st1" points="51.6,14.3 50.5,16.5 50.5,16.5 52.9,16.5 53.8,14.3 "/>
<polygon class="st1" points="27.8,42.1 26.7,44.3 27.8,45.4 30,43.2 "/>
<polygon class="st1" points="32.2,4.1 31.1,6.3 32.2,7.4 34.5,5.2 "/>
</svg>
