<?xml version="1.0" encoding="utf-8"?>
<!-- Generator: Adobe Illustrator 25.3.1, SVG Export Plug-In . SVG Version: 6.00 Build 0)  -->
<svg version="1.1" id="Слой_1" xmlns="http://www.w3.org/2000/svg" xmlns:xlink="http://www.w3.org/1999/xlink" x="0px" y="0px"
	 viewBox="0 0 60 50" style="enable-background:new 0 0 60 50;" xml:space="preserve">
<style type="text/css">
	.st0{fill:url(#SVGID_1_);stroke:#050505;stroke-miterlimit:10;}
	.st1{fill:url(#SVGID_2_);stroke:#050505;stroke-miterlimit:10;}
	.st2{fill:url(#SVGID_3_);stroke:#050505;stroke-miterlimit:10;}
	.st3{fill:url(#SVGID_4_);stroke:#050505;stroke-miterlimit:10;}
</style>
<linearGradient id="SVGID_1_" gradientUnits="userSpaceOnUse" x1="18.59" y1="24.5314" x2="46.51" y2="24.5314">
	<stop  offset="3.516341e-07" style="stop-color:#BF9A00"/>
	<stop  offset="0.3476" style="stop-color:#E2E900"/>
	<stop  offset="0.87" style="stop-color:#E9BD00"/>
	<stop  offset="1" style="stop-color:#FFAB15"/>
</linearGradient>
<path class="st0" d="M46.5,24.5c0,11.8-8.3,21.3-18.5,21.3c-2.8,0-5.4-0.7-7.8-2c1.9-0.5,4.6-1.6,7.3-3.6c0.8-0.6,8.5-6.5,8.9-14.6
	c0.3-8.1-6.8-16.6-17.8-19.3c2.8-1.9,6-2.9,9.4-2.9C38.2,3.3,46.5,12.8,46.5,24.5z"/>
<linearGradient id="SVGID_2_" gradientUnits="userSpaceOnUse" x1="7.2177" y1="16.0589" x2="14.3594" y2="16.0589">
	<stop  offset="3.516341e-07" style="stop-color:#BF9A00"/>
	<stop  offset="0.3476" style="stop-color:#E2E900"/>
	<stop  offset="0.87" style="stop-color:#E9BD00"/>
	<stop  offset="1" style="stop-color:#FFAB15"/>
</linearGradient>
<polygon class="st1" points="12.3,19.6 10.3,18.1 7.9,18.9 8.7,16.5 7.2,14.5 9.7,14.5 11.2,12.5 12,14.9 14.4,15.7 12.3,17.1 "/>
<linearGradient id="SVGID_3_" gradientUnits="userSpaceOnUse" x1="18.5485" y1="27.1007" x2="26.5834" y2="27.1007">
	<stop  offset="3.516341e-07" style="stop-color:#BF9A00"/>
	<stop  offset="0.3476" style="stop-color:#E2E900"/>
	<stop  offset="0.87" style="stop-color:#E9BD00"/>
	<stop  offset="1" style="stop-color:#FFAB15"/>
</linearGradient>
<polygon class="st2" points="23.6,31.3 21.5,29.2 18.7,29.8 20,27.2 18.5,24.6 21.4,25 23.5,22.9 23.9,25.8 26.6,27 24,28.4 "/>
<linearGradient id="SVGID_4_" gradientUnits="userSpaceOnUse" x1="48.957" y1="14.104" x2="55.4908" y2="14.104">
	<stop  offset="3.516341e-07" style="stop-color:#BF9A00"/>
	<stop  offset="0.3476" style="stop-color:#E2E900"/>
	<stop  offset="0.87" style="stop-color:#E9BD00"/>
	<stop  offset="1" style="stop-color:#FFAB15"/>
</linearGradient>
<polygon class="st3" points="54.5,17 52.4,16.1 50.5,17.3 50.7,15 49,13.5 51.2,13 52.1,10.9 53.2,12.9 55.5,13.1 54,14.8 "/>
</svg>
