<?xml version="1.0" encoding="utf-8"?>
<!-- Generator: Adobe Illustrator 25.3.1, SVG Export Plug-In . SVG Version: 6.00 Build 0)  -->
<svg version="1.1" id="Слой_1" xmlns="http://www.w3.org/2000/svg" xmlns:xlink="http://www.w3.org/1999/xlink" x="0px" y="0px"
	 viewBox="0 0 60 50" style="enable-background:new 0 0 60 50;" xml:space="preserve">
<style type="text/css">
	.st0{fill:url(#SVGID_1_);stroke:#050505;stroke-miterlimit:10;}
	.st1{fill:url(#SVGID_2_);stroke:#050505;stroke-miterlimit:10;}
	.st2{fill:url(#SVGID_3_);stroke:#050505;stroke-miterlimit:10;}
	.st3{fill:url(#SVGID_4_);stroke:#000000;stroke-width:0.1;stroke-miterlimit:10;}
	.st4{fill:url(#SVGID_5_);stroke:#000000;stroke-width:0.1;stroke-miterlimit:10;}
	.st5{fill:url(#SVGID_6_);stroke:#000000;stroke-width:0.1;stroke-miterlimit:10;}
</style>
<linearGradient id="SVGID_1_" gradientUnits="userSpaceOnUse" x1="17.6333" y1="23.5673" x2="45.5533" y2="23.5673">
	<stop  offset="3.516341e-07" style="stop-color:#BF9A00"/>
	<stop  offset="0.3476" style="stop-color:#E2E900"/>
	<stop  offset="0.87" style="stop-color:#E9BD00"/>
	<stop  offset="1" style="stop-color:#FFAB15"/>
</linearGradient>
<path class="st0" d="M45.6,23.6c0,11.9-8.3,21.6-18.5,21.6c-2.8,0-5.4-0.7-7.8-2c1.9-0.6,4.6-1.6,7.3-3.7c0.8-0.6,8.5-6.6,8.9-14.8
	C35.7,16.4,28.6,7.8,17.6,5c2.8-1.9,6-3,9.4-3C37.3,2,45.6,11.7,45.6,23.6z"/>
<linearGradient id="SVGID_2_" gradientUnits="userSpaceOnUse" x1="6.261" y1="14.9783" x2="13.4026" y2="14.9783">
	<stop  offset="3.516341e-07" style="stop-color:#BF9A00"/>
	<stop  offset="0.3476" style="stop-color:#E2E900"/>
	<stop  offset="0.87" style="stop-color:#E9BD00"/>
	<stop  offset="1" style="stop-color:#FFAB15"/>
</linearGradient>
<polygon class="st1" points="11.3,18.6 9.3,17.1 6.9,17.9 7.8,15.4 6.3,13.4 8.8,13.4 10.3,11.3 11,13.8 13.4,14.6 11.3,16 "/>
<linearGradient id="SVGID_3_" gradientUnits="userSpaceOnUse" x1="48.0002" y1="12.9967" x2="54.5341" y2="12.9967">
	<stop  offset="3.516341e-07" style="stop-color:#BF9A00"/>
	<stop  offset="0.3476" style="stop-color:#E2E900"/>
	<stop  offset="0.87" style="stop-color:#E9BD00"/>
	<stop  offset="1" style="stop-color:#FFAB15"/>
</linearGradient>
<polygon class="st2" points="53.6,15.9 51.5,15 49.5,16.2 49.7,13.9 48,12.4 50.2,11.9 51.1,9.8 52.3,11.8 54.5,12 53,13.7 "/>
<linearGradient id="SVGID_4_" gradientUnits="userSpaceOnUse" x1="23.8933" y1="16.7369" x2="12.4477" y2="51.5036" gradientTransform="matrix(1 0 0 1 0 2)">
	<stop  offset="0" style="stop-color:#00A99D"/>
	<stop  offset="0.3476" style="stop-color:#0B6A85"/>
	<stop  offset="0.6435" style="stop-color:#143B73"/>
	<stop  offset="0.87" style="stop-color:#191F68"/>
	<stop  offset="1" style="stop-color:#1B1464"/>
</linearGradient>
<path class="st3" d="M0.4,41.5c-0.5-1.4,0.9-3.2,1.2-3.6c1-1.4,1.5-1,2.4-2.1c1.3-1.6,0.6-2.7,1.8-4.3c1.3-1.7,3.1-2,3.6-2.1
	c1.9-0.3,2.2,0.6,3.6,0c1.5-0.6,1.3-1.8,3-2.9c1.7-1.1,3.4-0.9,4.2-0.7c0.4,0.1,2.1,0.5,3.6,2.1c1.4,1.6,1,2.5,2.4,4.3
	c1,1.3,1.6,1.3,2.5,2c0,0,0.5,0.3,1.1,0.9c1.3,1.2,3.7,6,2.4,7.9c-0.4,0.5-0.9,0.7-6.6,0c-4.4-0.6-4.4-0.7-6-0.7
	c-2.5,0.1-2.7,0.5-6,0.7c-2.9,0.2-2.4-0.3-4.8,0c-2.9,0.3-4.4,0.9-6.6,0C0.9,42.4,0.6,41.8,0.4,41.5z"/>
<linearGradient id="SVGID_5_" gradientUnits="userSpaceOnUse" x1="51.5406" y1="13.5308" x2="38.4531" y2="53.2847" gradientTransform="matrix(1 0 0 1 0 2)">
	<stop  offset="0" style="stop-color:#00A99D"/>
	<stop  offset="0.3476" style="stop-color:#0B6A85"/>
	<stop  offset="0.6435" style="stop-color:#143B73"/>
	<stop  offset="0.87" style="stop-color:#191F68"/>
	<stop  offset="1" style="stop-color:#1B1464"/>
</linearGradient>
<path class="st4" d="M26.9,42c-0.5-1.6,0.9-3.9,1.2-4.3c1-1.6,1.5-1.2,2.4-2.5c1.3-1.9,0.6-3.2,1.8-5.2c1.3-2,3.1-2.4,3.6-2.5
	c1.9-0.4,2.2,0.7,3.6,0c1.5-0.7,1.3-2.1,3-3.4s3.4-1,4.2-0.8c0.4,0.1,2.1,0.6,3.6,2.5c1.4,1.9,1,2.9,2.4,5.2c1,1.5,1.6,1.5,2.5,2.3
	c0,0,0.5,0.3,1.1,1.1c1.3,1.4,3.7,7.2,2.4,9.4c-0.4,0.6-0.9,0.8-6.6,0c-4.4-0.7-4.4-0.8-6-0.8c-2.5,0.1-2.7,0.6-6,0.8
	c-2.9,0.2-2.4-0.3-4.8,0c-2.9,0.3-4.4,1-6.6,0C27.4,43.2,27.1,42.5,26.9,42z"/>
<linearGradient id="SVGID_6_" gradientUnits="userSpaceOnUse" x1="37.6812" y1="17.2406" x2="24.5938" y2="56.9945" gradientTransform="matrix(1 0 0 1 0 2)">
	<stop  offset="0" style="stop-color:#00A99D"/>
	<stop  offset="0.3476" style="stop-color:#0B6A85"/>
	<stop  offset="0.6435" style="stop-color:#143B73"/>
	<stop  offset="0.87" style="stop-color:#191F68"/>
	<stop  offset="1" style="stop-color:#1B1464"/>
</linearGradient>
<path class="st5" d="M13,45.8c-0.5-1.6,0.9-3.9,1.2-4.3c1-1.6,1.5-1.2,2.4-2.5c1.3-1.9,0.6-3.2,1.8-5.2c1.3-2,3.1-2.4,3.6-2.5
	c1.9-0.4,2.2,0.7,3.6,0c1.5-0.7,1.3-2.1,3-3.4s3.4-1,4.2-0.8c0.4,0.1,2.1,0.6,3.6,2.5c1.4,1.9,1,2.9,2.4,5.2c1,1.5,1.6,1.5,2.5,2.3
	c0,0,0.5,0.3,1.1,1.1c1.3,1.4,3.7,7.2,2.4,9.4c-0.4,0.6-0.9,0.8-6.6,0c-4.4-0.7-4.4-0.8-6-0.8c-2.5,0.1-2.7,0.6-6,0.8
	c-2.9,0.2-2.4-0.3-4.8,0c-2.9,0.3-4.4,1-6.6,0C13.5,46.9,13.2,46.2,13,45.8z"/>
</svg>
