<?xml version="1.0" encoding="utf-8"?>
<!-- Generator: Adobe Illustrator 25.3.1, SVG Export Plug-In . SVG Version: 6.00 Build 0)  -->
<svg version="1.1" id="Слой_1" xmlns="http://www.w3.org/2000/svg" xmlns:xlink="http://www.w3.org/1999/xlink" x="0px" y="0px"
	 viewBox="0 0 60 50" style="enable-background:new 0 0 60 50;" xml:space="preserve">
<style type="text/css">
	.st0{fill:url(#SVGID_1_);stroke:#000000;stroke-width:0.1;stroke-miterlimit:10;}
	.st1{fill:url(#SVGID_2_);stroke:#000000;stroke-width:0.1;stroke-miterlimit:10;}
	.st2{fill:url(#SVGID_3_);stroke:#000000;stroke-width:0.1;stroke-miterlimit:10;}
	.st3{fill:url(#SVGID_4_);stroke:#000000;stroke-width:0.25;stroke-miterlimit:10;}
	.st4{fill:url(#SVGID_5_);stroke:#000000;stroke-width:0.25;stroke-miterlimit:10;}
	.st5{fill:url(#SVGID_6_);stroke:#000000;stroke-width:0.25;stroke-miterlimit:10;}
	.st6{fill:url(#SVGID_7_);stroke:#000000;stroke-width:0.25;stroke-miterlimit:10;}
	.st7{fill:url(#SVGID_8_);stroke:#000000;stroke-width:0.25;stroke-miterlimit:10;}
</style>
<linearGradient id="SVGID_1_" gradientUnits="userSpaceOnUse" x1="32.8624" y1="36.2892" x2="0.6207" y2="36.6546" gradientTransform="matrix(1 0 0 -1 0 54)">
	<stop  offset="0" style="stop-color:#00A99D"/>
	<stop  offset="0.3476" style="stop-color:#0B6A85"/>
	<stop  offset="0.6435" style="stop-color:#143B73"/>
	<stop  offset="0.87" style="stop-color:#191F68"/>
	<stop  offset="1" style="stop-color:#1B1464"/>
</linearGradient>
<path class="st0" d="M-0.2,25.6C-0.7,24,0.7,21.8,1,21.4c1-1.6,1.5-1.2,2.4-2.5c1.3-2,0.6-3.3,1.8-5.1c1.3-2,3.1-2.4,3.6-2.5
	c1.9-0.4,2.2,0.7,3.6,0c1.5-0.7,1.3-2.1,3-3.4s3.4-1,4.2-0.8c0.4,0.1,2.1,0.6,3.6,2.5c1.4,1.9,1,2.9,2.4,5.1c1,1.5,1.6,1.5,2.5,2.3
	c0,0,0.5,0.3,1.1,1.1c1.3,1.4,3.7,7.1,2.4,9.3c-0.4,0.6-0.9,0.8-6.6,0c-4.4-0.7-4.4-0.8-6-0.8c-2.5,0.1-2.7,0.6-6,0.8
	c-2.9,0.2-2.4-0.3-4.8,0c-2.9,0.3-4.4,1-6.6,0C0.3,26.7-0.1,26.1-0.2,25.6z"/>
<linearGradient id="SVGID_2_" gradientUnits="userSpaceOnUse" x1="29.8739" y1="35.4433" x2="62.1157" y2="35.0592" gradientTransform="matrix(1 0 0 -1 0 54)">
	<stop  offset="0" style="stop-color:#00A99D"/>
	<stop  offset="0.3476" style="stop-color:#0B6A85"/>
	<stop  offset="0.6435" style="stop-color:#143B73"/>
	<stop  offset="0.87" style="stop-color:#191F68"/>
	<stop  offset="1" style="stop-color:#1B1464"/>
</linearGradient>
<path class="st1" d="M27.6,26.8c-0.5-1.6,0.9-3.8,1.2-4.2c1-1.6,1.5-1.2,2.4-2.5c1.3-1.9,0.6-3.2,1.8-5.1c1.3-2,3.1-2.4,3.6-2.5
	c1.9-0.4,2.2,0.7,3.6,0c1.5-0.7,1.3-2.1,3-3.4s3.4-1,4.2-0.8c0.4,0.1,2.1,0.6,3.6,2.5c1.4,1.9,1,2.9,2.4,5.1c1,1.5,1.6,1.5,2.5,2.3
	c0,0,0.5,0.3,1.1,1.1c1.3,1.4,3.7,7.1,2.4,9.3c-0.4,0.6-0.9,0.8-6.6,0c-4.4-0.7-4.4-0.8-6-0.8c-2.5,0.1-2.7,0.6-6,0.8
	c-2.9,0.2-2.4-0.3-4.8,0c-2.9,0.3-4.4,1-6.6,0C28,27.9,27.7,27.3,27.6,26.8z"/>
<linearGradient id="SVGID_3_" gradientUnits="userSpaceOnUse" x1="37.1064" y1="51.8938" x2="24.1574" y2="12.5609" gradientTransform="matrix(1 0 0 -1 0 54)">
	<stop  offset="0" style="stop-color:#00A99D"/>
	<stop  offset="0.3476" style="stop-color:#0B6A85"/>
	<stop  offset="0.6435" style="stop-color:#143B73"/>
	<stop  offset="0.87" style="stop-color:#191F68"/>
	<stop  offset="1" style="stop-color:#1B1464"/>
</linearGradient>
<path class="st2" d="M12.6,28.2c-0.5-1.6,0.9-3.8,1.2-4.2c1-1.6,1.5-1.2,2.4-2.5c1.3-1.9,0.6-3.2,1.8-5.1c1.3-2,3.1-2.4,3.6-2.5
	c1.9-0.4,2.2,0.7,3.6,0c1.5-0.7,1.3-2.1,3-3.4s3.4-1,4.2-0.8c0.4,0.1,2.1,0.6,3.6,2.5c1.4,1.9,1,2.9,2.4,5.1c1,1.5,1.6,1.5,2.5,2.3
	c0,0,0.5,0.3,1.1,1.1c1.3,1.4,3.7,7.1,2.4,9.3c-0.4,0.6-0.9,0.8-6.6,0c-4.4-0.7-4.4-0.8-6-0.8c-2.5,0.1-2.7,0.6-6,0.8
	c-2.9,0.2-2.4-0.3-4.8,0c-2.9,0.3-4.4,1-6.6,0C13.1,29.3,12.7,28.6,12.6,28.2z"/>
<linearGradient id="SVGID_4_" gradientUnits="userSpaceOnUse" x1="13.9957" y1="19.1377" x2="10.2327" y2="7.7074" gradientTransform="matrix(0.585 -6.588418e-03 -8.681628e-03 -0.7708 16.3612 51.5122)">
	<stop  offset="0" style="stop-color:#00A99D"/>
	<stop  offset="0.3476" style="stop-color:#003499"/>
	<stop  offset="0.6435" style="stop-color:#00F4FF"/>
	<stop  offset="0.87" style="stop-color:#191F68"/>
	<stop  offset="1" style="stop-color:#1B1464"/>
</linearGradient>
<path class="st3" d="M24.9,41.7c0,1.2-0.7,2.2-1.7,2.2s-1.7-1-1.7-2.2c0-0.3,0.1-0.7,0.4-1.5c0.6-1.4,0.8-2.1,1.2-2.1
	c0.3,0,0.6,0.7,1.2,2.1C24.9,41.4,24.9,41.6,24.9,41.7z"/>
<linearGradient id="SVGID_5_" gradientUnits="userSpaceOnUse" x1="-2.472" y1="26.5545" x2="-6.2351" y2="15.1241" gradientTransform="matrix(0.585 -6.588418e-03 -8.681628e-03 -0.7708 16.3612 51.5122)">
	<stop  offset="0" style="stop-color:#00A99D"/>
	<stop  offset="0.3476" style="stop-color:#003499"/>
	<stop  offset="0.6435" style="stop-color:#00F4FF"/>
	<stop  offset="0.87" style="stop-color:#191F68"/>
	<stop  offset="1" style="stop-color:#1B1464"/>
</linearGradient>
<path class="st4" d="M15.2,36.1c0,1.2-0.7,2.2-1.7,2.2c-0.9,0-1.7-1-1.7-2.2c0-0.3,0.1-0.7,0.4-1.5c0.6-1.4,0.8-2.1,1.2-2.1
	c0.3,0,0.6,0.7,1.2,2.1C15.1,35.7,15.2,35.9,15.2,36.1z"/>
<linearGradient id="SVGID_6_" gradientUnits="userSpaceOnUse" x1="34.5085" y1="18.9703" x2="30.7454" y2="7.5399" gradientTransform="matrix(0.585 -6.588418e-03 -8.681628e-03 -0.7708 16.3612 51.5122)">
	<stop  offset="0" style="stop-color:#00A99D"/>
	<stop  offset="0.3476" style="stop-color:#003499"/>
	<stop  offset="0.6435" style="stop-color:#00F4FF"/>
	<stop  offset="0.87" style="stop-color:#191F68"/>
	<stop  offset="1" style="stop-color:#1B1464"/>
</linearGradient>
<path class="st5" d="M36.9,41.7c0,1.2-0.7,2.2-1.7,2.2c-0.9,0-1.7-1-1.7-2.2c0-0.3,0.1-0.7,0.4-1.5c0.6-1.4,0.8-2.1,1.2-2.1
	c0.3,0,0.6,0.7,1.2,2.1C36.9,41.4,36.9,41.6,36.9,41.7z"/>
<linearGradient id="SVGID_7_" gradientUnits="userSpaceOnUse" x1="46.0487" y1="25.7069" x2="42.2856" y2="14.2766" gradientTransform="matrix(0.585 -6.588418e-03 -8.681628e-03 -0.7708 16.3612 51.5122)">
	<stop  offset="0" style="stop-color:#00A99D"/>
	<stop  offset="0.3476" style="stop-color:#003499"/>
	<stop  offset="0.6435" style="stop-color:#00F4FF"/>
	<stop  offset="0.87" style="stop-color:#191F68"/>
	<stop  offset="1" style="stop-color:#1B1464"/>
</linearGradient>
<path class="st6" d="M43.6,36.4c0,1.2-0.7,2.2-1.7,2.2c-0.9,0-1.7-1-1.7-2.2c0-0.3,0.1-0.7,0.4-1.5c0.6-1.4,0.8-2.1,1.2-2.1
	c0.3,0,0.6,0.7,1.2,2.1C43.6,36.1,43.6,36.3,43.6,36.4z"/>
<linearGradient id="SVGID_8_" gradientUnits="userSpaceOnUse" x1="23.3441" y1="27.7192" x2="19.5811" y2="16.2888" gradientTransform="matrix(0.585 -6.588418e-03 -8.681628e-03 -0.7708 16.3612 51.5122)">
	<stop  offset="0" style="stop-color:#00A99D"/>
	<stop  offset="0.3476" style="stop-color:#003499"/>
	<stop  offset="0.6435" style="stop-color:#00F4FF"/>
	<stop  offset="0.87" style="stop-color:#191F68"/>
	<stop  offset="1" style="stop-color:#1B1464"/>
</linearGradient>
<path class="st7" d="M30.3,35c0,1.2-0.7,2.2-1.7,2.2c-0.9,0-1.7-1-1.7-2.2c0-0.3,0.1-0.7,0.4-1.5c0.6-1.4,0.8-2.1,1.2-2.1
	c0.3,0,0.6,0.7,1.2,2.1C30.3,34.7,30.3,34.9,30.3,35z"/>
</svg>
