<?xml version="1.0" encoding="utf-8"?>
<!-- Generator: Adobe Illustrator 25.3.1, SVG Export Plug-In . SVG Version: 6.00 Build 0)  -->
<svg version="1.1" id="Слой_1" xmlns="http://www.w3.org/2000/svg" xmlns:xlink="http://www.w3.org/1999/xlink" x="0px" y="0px"
	 viewBox="0 0 100 50" style="enable-background:new 0 0 100 50;" xml:space="preserve">
<style type="text/css">
	.st0{fill:url(#SVGID_1_);stroke:#000000;stroke-width:0.1;stroke-miterlimit:10;}
	.st1{fill:url(#SVGID_2_);stroke:#000000;stroke-width:0.1;stroke-miterlimit:10;}
	.st2{fill:url(#SVGID_3_);stroke:#000000;stroke-width:0.1;stroke-miterlimit:10;}
	.st3{fill:url(#SVGID_4_);stroke:#000000;stroke-width:0.1;stroke-miterlimit:10;}
	.st4{fill:url(#SVGID_5_);stroke:#000000;stroke-width:0.1;stroke-miterlimit:10;}
</style>
<linearGradient id="SVGID_1_" gradientUnits="userSpaceOnUse" x1="55.2208" y1="23.6211" x2="1.475" y2="23.012">
	<stop  offset="0" style="stop-color:#00A99D"/>
	<stop  offset="0.3476" style="stop-color:#0B6A85"/>
	<stop  offset="0.6435" style="stop-color:#143B73"/>
	<stop  offset="0.87" style="stop-color:#191F68"/>
	<stop  offset="1" style="stop-color:#1B1464"/>
</linearGradient>
<path class="st0" d="M0,33c-0.8-1.9,1.5-4.5,2-5c1.7-1.9,2.5-1.4,4-3c2.1-2.3,1-3.8,3-6c2.1-2.4,5.2-2.9,6-3c3.1-0.5,3.7,0.8,6,0
	c2.5-0.8,2.2-2.5,5-4c2.8-1.5,5.7-1.2,7-1c0.7,0.1,3.5,0.7,6,3c2.3,2.2,1.7,3.5,4,6c1.6,1.8,2.6,1.8,4.2,2.7c0,0,0.8,0.4,1.8,1.3
	c2.1,1.7,6.1,8.4,4,11c-0.6,0.7-1.5,1-11,0c-7.3-0.8-7.4-1-10-1c-4.1,0.1-4.5,0.7-10,1c-4.8,0.2-4-0.3-8,0c-4.8,0.3-7.3,1.2-11,0
	C0.8,34.3,0.2,33.6,0,33z"/>
<linearGradient id="SVGID_2_" gradientUnits="userSpaceOnUse" x1="50.2387" y1="24.496" x2="103.9843" y2="25.1364">
	<stop  offset="0" style="stop-color:#00A99D"/>
	<stop  offset="0.3476" style="stop-color:#0B6A85"/>
	<stop  offset="0.6435" style="stop-color:#143B73"/>
	<stop  offset="0.87" style="stop-color:#191F68"/>
	<stop  offset="1" style="stop-color:#1B1464"/>
</linearGradient>
<path class="st1" d="M46.3,34.5c-0.8-1.9,1.5-4.5,2-5c1.7-1.9,2.5-1.4,4-3c2.1-2.3,1-3.8,3-6c2.1-2.4,5.2-2.9,6-3
	c3.1-0.5,3.7,0.8,6,0c2.5-0.8,2.2-2.5,5-4c2.8-1.5,5.7-1.2,7-1c0.7,0.1,3.5,0.7,6,3c2.3,2.2,1.7,3.5,4,6c1.6,1.8,2.6,1.8,4.2,2.7
	c0,0,0.8,0.4,1.8,1.3c2.1,1.7,6.1,8.4,4,11c-0.6,0.7-1.5,1-11,0c-7.3-0.8-7.4-1-10-1c-4.1,0.1-4.5,0.7-10,1c-4.8,0.2-4-0.3-8,0
	c-4.8,0.3-7.3,1.2-11,0C47.1,35.8,46.5,35,46.3,34.5z"/>
<linearGradient id="SVGID_3_" gradientUnits="userSpaceOnUse" x1="58.6463" y1="-2.1072" x2="41.8386" y2="48.9465">
	<stop  offset="0" style="stop-color:#00A99D"/>
	<stop  offset="0.3476" style="stop-color:#0B6A85"/>
	<stop  offset="0.6435" style="stop-color:#143B73"/>
	<stop  offset="0.87" style="stop-color:#191F68"/>
	<stop  offset="1" style="stop-color:#1B1464"/>
</linearGradient>
<path class="st2" d="M21.3,30.5c-0.8-1.9,1.5-4.5,2-5c1.7-1.9,2.5-1.4,4-3c2.1-2.3,1-3.8,3-6c2.1-2.4,5.2-2.9,6-3
	c3.1-0.5,3.7,0.8,6,0c2.5-0.8,2.2-2.5,5-4c2.8-1.5,5.7-1.2,7-1c0.7,0.1,3.5,0.7,6,3c2.3,2.2,1.7,3.5,4,6c1.6,1.8,2.6,1.8,4.2,2.7
	c0,0,0.8,0.4,1.8,1.3c2.1,1.7,6.1,8.4,4,11c-0.6,0.7-1.5,1-11,0c-7.3-0.8-7.4-1-10-1c-4.1,0.1-4.5,0.7-10,1c-4.8,0.2-4-0.3-8,0
	c-4.8,0.3-7.3,1.2-11,0C22.1,31.8,21.5,31,21.3,30.5z"/>
<linearGradient id="SVGID_4_" gradientUnits="userSpaceOnUse" x1="43.7809" y1="9.8928" x2="26.9733" y2="60.9465">
	<stop  offset="0" style="stop-color:#00A99D"/>
	<stop  offset="0.3476" style="stop-color:#0B6A85"/>
	<stop  offset="0.6435" style="stop-color:#143B73"/>
	<stop  offset="0.87" style="stop-color:#191F68"/>
	<stop  offset="1" style="stop-color:#1B1464"/>
</linearGradient>
<path class="st3" d="M6.4,42.5c-0.8-1.9,1.5-4.5,2-5c1.7-1.9,2.5-1.4,4-3c2.1-2.3,1-3.8,3-6c2.1-2.4,5.2-2.9,6-3
	c3.1-0.5,3.7,0.8,6,0c2.5-0.8,2.2-2.5,5-4c2.8-1.5,5.7-1.2,7-1c0.7,0.1,3.5,0.7,6,3c2.3,2.2,1.7,3.5,4,6c1.6,1.8,2.6,1.8,4.2,2.7
	c0,0,0.8,0.4,1.8,1.3c2.1,1.7,6.1,8.4,4,11c-0.6,0.7-1.5,1-11,0c-7.3-0.8-7.4-1-10-1c-4.1,0.1-4.5,0.7-10,1c-4.8,0.2-4-0.3-8,0
	c-4.8,0.3-7.3,1.2-11,0C7.2,43.8,6.7,43,6.4,42.5z"/>
<linearGradient id="SVGID_5_" gradientUnits="userSpaceOnUse" x1="74.7809" y1="9.8928" x2="57.9733" y2="60.9465">
	<stop  offset="0" style="stop-color:#00A99D"/>
	<stop  offset="0.3476" style="stop-color:#0B6A85"/>
	<stop  offset="0.6435" style="stop-color:#143B73"/>
	<stop  offset="0.87" style="stop-color:#191F68"/>
	<stop  offset="1" style="stop-color:#1B1464"/>
</linearGradient>
<path class="st4" d="M37.4,42.5c-0.8-1.9,1.5-4.5,2-5c1.7-1.9,2.5-1.4,4-3c2.1-2.3,1-3.8,3-6c2.1-2.4,5.2-2.9,6-3
	c3.1-0.5,3.7,0.8,6,0c2.5-0.8,2.2-2.5,5-4c2.8-1.5,5.7-1.2,7-1c0.7,0.1,3.5,0.7,6,3c2.3,2.2,1.7,3.5,4,6c1.6,1.8,2.6,1.8,4.2,2.7
	c0,0,0.8,0.4,1.8,1.3c2.1,1.7,6.1,8.4,4,11c-0.6,0.7-1.5,1-11,0c-7.3-0.8-7.4-1-10-1c-4.1,0.1-4.5,0.7-10,1c-4.8,0.2-4-0.3-8,0
	c-4.8,0.3-7.3,1.2-11,0C38.2,43.8,37.7,43,37.4,42.5z"/>
</svg>
