<?xml version="1.0" encoding="utf-8"?>
<!-- Generator: Adobe Illustrator 25.3.1, SVG Export Plug-In . SVG Version: 6.00 Build 0)  -->
<svg version="1.1" id="Слой_1" xmlns="http://www.w3.org/2000/svg" xmlns:xlink="http://www.w3.org/1999/xlink" x="0px" y="0px"
	 viewBox="0 0 60 50" style="enable-background:new 0 0 60 50;" xml:space="preserve">
<style type="text/css">
	.st0{fill:url(#SVGID_1_);stroke:#050505;stroke-miterlimit:10;}
	.st1{fill:url(#SVGID_2_);stroke:#050505;stroke-miterlimit:10;}
	.st2{fill:url(#SVGID_3_);stroke:#050505;stroke-miterlimit:10;}
	.st3{fill:url(#SVGID_4_);stroke:#000000;stroke-width:0.1;stroke-miterlimit:10;}
	.st4{fill:url(#SVGID_5_);stroke:#000000;stroke-width:0.1;stroke-miterlimit:10;}
	.st5{fill:url(#SVGID_6_);stroke:#000000;stroke-width:0.1;stroke-miterlimit:10;}
</style>
<linearGradient id="SVGID_1_" gradientUnits="userSpaceOnUse" x1="18.59" y1="24.5314" x2="46.51" y2="24.5314">
	<stop  offset="3.516341e-07" style="stop-color:#BF9A00"/>
	<stop  offset="0.3476" style="stop-color:#E2E900"/>
	<stop  offset="0.87" style="stop-color:#E9BD00"/>
	<stop  offset="1" style="stop-color:#FFAB15"/>
</linearGradient>
<path class="st0" d="M46.5,24.5c0,11.8-8.3,21.3-18.5,21.3c-2.8,0-5.4-0.7-7.8-2c1.9-0.5,4.6-1.6,7.3-3.6c0.8-0.6,8.5-6.5,8.9-14.6
	c0.3-8.1-6.8-16.6-17.8-19.3c2.8-1.9,6-2.9,9.4-2.9C38.2,3.3,46.5,12.8,46.5,24.5z"/>
<linearGradient id="SVGID_2_" gradientUnits="userSpaceOnUse" x1="7.2177" y1="16.0589" x2="14.3594" y2="16.0589">
	<stop  offset="3.516341e-07" style="stop-color:#BF9A00"/>
	<stop  offset="0.3476" style="stop-color:#E2E900"/>
	<stop  offset="0.87" style="stop-color:#E9BD00"/>
	<stop  offset="1" style="stop-color:#FFAB15"/>
</linearGradient>
<polygon class="st1" points="12.3,19.6 10.3,18.1 7.9,18.9 8.7,16.5 7.2,14.5 9.7,14.5 11.2,12.5 12,14.9 14.4,15.7 12.3,17.1 "/>
<linearGradient id="SVGID_3_" gradientUnits="userSpaceOnUse" x1="48.957" y1="14.104" x2="55.4908" y2="14.104">
	<stop  offset="3.516341e-07" style="stop-color:#BF9A00"/>
	<stop  offset="0.3476" style="stop-color:#E2E900"/>
	<stop  offset="0.87" style="stop-color:#E9BD00"/>
	<stop  offset="1" style="stop-color:#FFAB15"/>
</linearGradient>
<polygon class="st2" points="54.5,17 52.4,16.1 50.5,17.3 50.7,15 49,13.5 51.2,13 52.1,10.9 53.2,12.9 55.5,13.1 54,14.8 "/>
<linearGradient id="SVGID_4_" gradientUnits="userSpaceOnUse" x1="24.764" y1="17.7233" x2="13.4334" y2="52.1406" gradientTransform="matrix(1 0 0 1 0 2)">
	<stop  offset="0" style="stop-color:#00A99D"/>
	<stop  offset="0.3476" style="stop-color:#0B6A85"/>
	<stop  offset="0.6435" style="stop-color:#143B73"/>
	<stop  offset="0.87" style="stop-color:#191F68"/>
	<stop  offset="1" style="stop-color:#1B1464"/>
</linearGradient>
<path class="st3" d="M1.4,42.2c-0.5-1.3,0.9-3.2,1.2-3.5c1-1.3,1.5-1,2.4-2.1c1.3-1.6,0.6-2.7,1.8-4.3c1.3-1.7,3.1-2,3.6-2.1
	c1.9-0.3,2.2,0.6,3.6,0c1.5-0.6,1.3-1.8,3-2.9s3.4-0.8,4.2-0.7c0.4,0.1,2.1,0.5,3.6,2.1c1.4,1.6,1,2.4,2.4,4.3
	c1,1.3,1.6,1.3,2.5,1.9c0,0,0.5,0.3,1.1,0.9c1.3,1.2,3.7,6,2.4,7.8c-0.4,0.5-0.9,0.7-6.6,0c-4.4-0.6-4.4-0.7-6-0.7
	c-2.5,0.1-2.7,0.5-6,0.7c-2.9,0.2-2.4-0.3-4.8,0c-2.9,0.3-4.4,0.8-6.6,0C1.9,43.1,1.6,42.5,1.4,42.2z"/>
<linearGradient id="SVGID_5_" gradientUnits="userSpaceOnUse" x1="52.3943" y1="14.5626" x2="39.4454" y2="53.8956" gradientTransform="matrix(1 0 0 1 0 2)">
	<stop  offset="0" style="stop-color:#00A99D"/>
	<stop  offset="0.3476" style="stop-color:#0B6A85"/>
	<stop  offset="0.6435" style="stop-color:#143B73"/>
	<stop  offset="0.87" style="stop-color:#191F68"/>
	<stop  offset="1" style="stop-color:#1B1464"/>
</linearGradient>
<path class="st4" d="M27.8,42.8c-0.5-1.6,0.9-3.8,1.2-4.2c1-1.6,1.5-1.2,2.4-2.5c1.3-1.9,0.6-3.2,1.8-5.1c1.3-2,3.1-2.4,3.6-2.5
	c1.9-0.4,2.2,0.7,3.6,0c1.5-0.7,1.3-2.1,3-3.4s3.4-1,4.2-0.8c0.4,0.1,2.1,0.6,3.6,2.5c1.4,1.9,1,2.9,2.4,5.1c1,1.5,1.6,1.5,2.5,2.3
	c0,0,0.5,0.3,1.1,1.1c1.3,1.4,3.7,7.1,2.4,9.3c-0.4,0.6-0.9,0.8-6.6,0c-4.4-0.7-4.4-0.8-6-0.8c-2.5,0.1-2.7,0.6-6,0.8
	c-2.9,0.2-2.4-0.3-4.8,0c-2.9,0.3-4.4,1-6.6,0C28.3,43.9,28,43.2,27.8,42.8z"/>
<linearGradient id="SVGID_6_" gradientUnits="userSpaceOnUse" x1="38.535" y1="18.2222" x2="25.5861" y2="57.5552" gradientTransform="matrix(1 0 0 1 0 2)">
	<stop  offset="0" style="stop-color:#00A99D"/>
	<stop  offset="0.3476" style="stop-color:#0B6A85"/>
	<stop  offset="0.6435" style="stop-color:#143B73"/>
	<stop  offset="0.87" style="stop-color:#191F68"/>
	<stop  offset="1" style="stop-color:#1B1464"/>
</linearGradient>
<path class="st5" d="M14,46.4c-0.5-1.6,0.9-3.8,1.2-4.2c1-1.6,1.5-1.2,2.4-2.5c1.3-1.9,0.6-3.2,1.8-5.1c1.3-2,3.1-2.4,3.6-2.5
	c1.9-0.4,2.2,0.7,3.6,0c1.5-0.7,1.3-2.1,3-3.4s3.4-1,4.2-0.8c0.4,0.1,2.1,0.6,3.6,2.5c1.4,1.9,1,2.9,2.4,5.1c1,1.5,1.6,1.5,2.5,2.3
	c0,0,0.5,0.3,1.1,1.1c1.3,1.4,3.7,7.1,2.4,9.3c-0.4,0.6-0.9,0.8-6.6,0c-4.4-0.7-4.4-0.8-6-0.8c-2.5,0.1-2.7,0.6-6,0.8
	c-2.9,0.2-2.4-0.3-4.8,0c-2.9,0.3-4.4,1-6.6,0C14.5,47.5,14.2,46.8,14,46.4z"/>
</svg>
