<?xml version="1.0" encoding="utf-8"?>
<!-- Generator: Adobe Illustrator 25.3.1, SVG Export Plug-In . SVG Version: 6.00 Build 0)  -->
<svg version="1.1" id="Слой_1" xmlns="http://www.w3.org/2000/svg" xmlns:xlink="http://www.w3.org/1999/xlink" x="0px" y="0px"
	 viewBox="0 0 60 50" style="enable-background:new 0 0 60 50;" xml:space="preserve">
<style type="text/css">
	.st0{fill:url(#SVGID_1_);}
	.st1{opacity:0.3;}
	.st2{fill:url(#SVGID_2_);}
	.st3{fill:#E8E8AF;}
	.st4{opacity:0.2;}
	.st5{fill:#F23D3D;}
</style>
<g>
	
		<linearGradient id="SVGID_1_" gradientUnits="userSpaceOnUse" x1="20.4661" y1="-1.7826" x2="39.5318" y2="54.9691" gradientTransform="matrix(1 0 0 -1 0 52)">
		<stop  offset="0" style="stop-color:#F15A24"/>
		<stop  offset="0.1677" style="stop-color:#F48623"/>
		<stop  offset="0.3376" style="stop-color:#F7AB22"/>
		<stop  offset="0.5077" style="stop-color:#F9C922"/>
		<stop  offset="0.6758" style="stop-color:#FBDD21"/>
		<stop  offset="0.841" style="stop-color:#FCEA21"/>
		<stop  offset="1" style="stop-color:#FCEE21"/>
	</linearGradient>
	<ellipse class="st0" cx="30" cy="25.3" rx="30" ry="25"/>
	<path d="M60,24.7c0-0.7-0.1-1.4-0.2-2.1c-0.1-0.8-0.2-1.6-0.4-2.3c-0.2-0.8-0.4-1.6-0.7-2.4c-0.2-0.5-0.4-1-0.6-1.5
		c-0.4-0.9-0.9-1.7-1.4-2.5c-0.3-0.5-0.6-1-1-1.5c-0.7-1-1.6-2-2.5-2.9c-1.8-1.9-4-3.5-6.4-4.8c-0.8-0.5-1.6-0.9-2.5-1.2
		c0,0,0,0,0,0c-0.9-0.4-1.7-0.8-2.6-1.1c-2.6-0.9-5.4-1.5-8.3-1.8c-1.1-0.1-2.2-0.2-3.3-0.2s-2.2,0.1-3.4,0.2
		c-2.9,0.3-5.7,0.9-8.3,1.8c-0.9,0.3-1.8,0.7-2.6,1.1c0,0,0,0,0,0c-0.9,0.4-1.7,0.8-2.5,1.2c-2.4,1.3-4.5,3-6.4,4.8
		c-0.9,0.9-1.8,1.9-2.5,2.9c-0.4,0.5-0.7,1-1,1.5c-0.5,0.8-1,1.7-1.4,2.5c-0.2,0.5-0.5,1-0.6,1.5c-0.3,0.8-0.5,1.6-0.7,2.4
		c-0.2,0.8-0.3,1.5-0.4,2.3C0.1,23.5,0,24.4,0,25.3c0,0.9,0.1,1.8,0.2,2.7c0.1,0.8,0.2,1.6,0.4,2.3c0.2,0.8,0.4,1.6,0.7,2.4
		c0.2,0.5,0.4,1,0.6,1.5c0.4,0.9,0.8,1.7,1.4,2.5c0.3,0.5,0.6,1,1,1.5c0.7,1,1.6,2,2.5,2.9c1.8,1.8,4,3.5,6.4,4.8
		c0.8,0.4,1.6,0.9,2.5,1.2c0,0,0,0,0,0c0.9,0.4,1.7,0.8,2.6,1.1c1.3,0.4,2.6,0.8,3.9,1.1h0c2.5,0.5,5,0.8,7.7,0.8
		c2.7,0,5.2-0.3,7.7-0.8h0c1.4-0.3,2.7-0.7,3.9-1.1c0.9-0.3,1.8-0.7,2.6-1.1c0,0,0,0,0,0c0.8-0.4,1.7-0.8,2.5-1.2
		c2.4-1.4,4.6-3,6.4-4.8c0.9-0.9,1.8-1.9,2.5-2.9c0.4-0.5,0.7-1,1-1.5c0.5-0.8,1-1.7,1.4-2.5c0.2-0.5,0.4-1,0.6-1.5
		c0.3-0.8,0.5-1.6,0.7-2.4c0.2-0.8,0.3-1.5,0.4-2.3c0.1-0.7,0.1-1.4,0.2-2.1c0-0.2,0-0.4,0-0.7C60,25.1,60,24.9,60,24.7z M37.2,49.5
		c-2.3,0.5-4.7,0.7-7.2,0.7s-4.9-0.2-7.2-0.7C9.8,46.8,0.1,37,0.1,25.3c0-13.1,12.3-24,27.9-24.8c0.7,0,1.3-0.1,2-0.1
		c0.7,0,1.3,0,2,0.1c15.6,0.8,27.9,11.7,27.9,24.8C59.9,37,50.2,46.8,37.2,49.5z"/>
</g>
<g class="st1">
	<linearGradient id="SVGID_2_" gradientUnits="userSpaceOnUse" x1="19.4742" y1="-6.0475" x2="40.5136" y2="56.5791">
		<stop  offset="0" style="stop-color:#F15A24"/>
		<stop  offset="0.1677" style="stop-color:#F48623"/>
		<stop  offset="0.3376" style="stop-color:#F7AB22"/>
		<stop  offset="0.5077" style="stop-color:#F9C922"/>
		<stop  offset="0.6758" style="stop-color:#FBDD21"/>
		<stop  offset="0.841" style="stop-color:#FCEA21"/>
		<stop  offset="1" style="stop-color:#FCEE21"/>
	</linearGradient>
	<path class="st2" d="M60,18.2c-2.2-7.7-8-14.1-15.7-17.7c-0.1-0.1-0.2-0.1-0.3-0.2H30H16c-0.1,0-0.2,0.1-0.3,0.2
		C8,4.1,2.2,10.6,0,18.3v14c2.1,7.3,7.3,13.4,14.3,17.1c0.6,0.3,1.1,0.6,1.7,0.8h14h14c0.6-0.3,1.1-0.5,1.7-0.8
		c7-3.7,12.2-9.8,14.3-17V18.2z"/>
</g>
<g>
	<path class="st3" d="M49,10.3c0,0-0.2-0.2-0.3-0.3c-0.3-0.5-0.8-1.1-1.7-1.7c-0.4-0.3-0.7-0.4-1.1-0.6c-0.2-0.1-0.5-0.2-0.9-0.4
		c-0.9-0.5-1.4-0.8-1.8-1.2c-0.3-0.3-0.6-0.5-1.2-0.8c-1.5-0.8-2.9-1-3.6-1.1c-0.2,0-0.4,0-0.4-0.1c0.1,0,0.6-0.2,1.6-0.2
		c0.6,0,1.4,0,2.4,0.2c1.3,0.3,4.3,0.9,6,3.2C48.8,8.5,49.1,9.8,49,10.3L49,10.3z"/>
	<path d="M47.9,7.3c0.9,1.3,1.1,2.6,1,2.8c-0.1,0-0.2-0.2-0.2-0.3c-0.3-0.4-0.8-1.1-1.7-1.7c-0.4-0.3-0.7-0.4-1.1-0.6
		c-0.2-0.1-0.5-0.2-0.9-0.4c-0.9-0.5-1.4-0.8-1.8-1.2c-0.3-0.3-0.7-0.5-1.2-0.8c-1.3-0.7-2.6-1-3.3-1.1c-0.1,0-0.2,0-0.3,0
		c0,0-0.1,0-0.1,0c-0.2,0-0.3,0.1-0.3,0.1c0,0,0.1,0.1,0.2,0.1c0,0,0,0,0.1,0c0.2,0,0.7,0.1,1.2,0.2c0.3,0.1,0.6,0.2,1,0.3
		c0.5,0.2,1,0.4,1.5,0.7c1.2,0.7,1.3,1.1,3,2c1,0.5,1.3,0.5,2,1c1.3,0.9,1.8,2,2,2c0,0,0,0,0-0.1c0,0,0-0.1,0-0.2
		C49,9.6,48.7,8.4,47.9,7.3z M38.5,4c0.1,0,0.1,0,0.2,0c0.3,0,0.6,0,0.9,0C40.1,4,41,4,42,4.2c1.3,0.2,4.2,0.8,5.9,3.1
		c-0.7-1-1.7-1.7-2.6-2.2c-0.9-0.4-1.7-0.7-2.4-0.8c-0.2,0-0.4-0.1-0.6-0.1c-0.1,0-0.2,0-0.3-0.1c-0.8-0.1-1.7-0.2-2.4-0.2
		c-0.1,0-0.2,0-0.4,0c-0.5,0-0.8,0-1,0.1C38.3,4,38.3,4,38.5,4C38.4,4,38.4,4,38.5,4z"/>
</g>
<g>
	<path class="st3" d="M51.8,13.3c-0.4,0-1.1-0.4-1.5-0.9c-0.2-0.2-0.3-0.4-0.2-0.6c0.1-0.3,0.6-0.5,1-0.5c0.1,0,0.6,0,1,0.5
		c0.2,0.3,0.3,0.7,0.2,1c0,0.2-0.1,0.3-0.2,0.4C51.9,13.3,51.9,13.3,51.8,13.3z"/>
	<path d="M52,11.8c-0.3-0.4-0.8-0.5-1-0.5c0,0,0,0,0,0c-0.4,0-0.9,0.2-1,0.5c0,0,0,0.1,0,0.1c0,0,0.1-0.1,0.1-0.1
		c0.2-0.2,0.5-0.4,0.9-0.4c0,0,0.6,0,0.9,0.5c0.2,0.3,0.3,0.7,0.2,1c0,0.2-0.1,0.3-0.2,0.4l0,0c0,0,0,0-0.1,0h-0.1
		c-0.4,0-1.1-0.4-1.5-0.9c0.4,0.5,1.1,1,1.6,1c0.1,0,0.2,0,0.2-0.1c0,0,0.1-0.1,0.1-0.1l0,0C52.3,12.9,52.4,12.3,52,11.8z M50,12.1
		c0,0,0-0.1,0-0.1c0,0,0,0,0,0C50,12,50,12,50,12.1z M50,12.1c0,0.1,0,0.2,0.2,0.3C50.1,12.3,50.1,12.2,50,12.1z"/>
</g>
<g class="st4">
	<ellipse class="st5" cx="30" cy="25.3" rx="30" ry="25"/>
</g>
</svg>
