<?xml version="1.0" encoding="utf-8"?>
<!-- Generator: Adobe Illustrator 25.3.1, SVG Export Plug-In . SVG Version: 6.00 Build 0)  -->
<svg version="1.1" id="Слой_1" xmlns="http://www.w3.org/2000/svg" xmlns:xlink="http://www.w3.org/1999/xlink" x="0px" y="0px"
	 viewBox="0 0 60 50" style="enable-background:new 0 0 60 50;" xml:space="preserve">
<style type="text/css">
	.st0{fill:url(#SVGID_1_);stroke:#000000;stroke-width:0.1;stroke-miterlimit:10;}
	.st1{fill:none;stroke:#0E00AA;stroke-miterlimit:10;}
</style>
<linearGradient id="SVGID_1_" gradientUnits="userSpaceOnUse" x1="41.2699" y1="56.8503" x2="23.6882" y2="3.4446" gradientTransform="matrix(1 0 0 -1 0 54)">
	<stop  offset="0" style="stop-color:#00A99D"/>
	<stop  offset="0.3476" style="stop-color:#0B6A85"/>
	<stop  offset="0.6435" style="stop-color:#143B73"/>
	<stop  offset="0.87" style="stop-color:#191F68"/>
	<stop  offset="1" style="stop-color:#1B1464"/>
</linearGradient>
<path class="st0" d="M0.7,31c-0.9-1.9,1.7-4.7,2.2-5.1c1.8-1.9,2.8-1.4,4.4-3c2.4-2.3,1.1-3.8,3.3-6.2c2.4-2.4,5.7-2.9,6.6-3
	c3.5-0.5,4.1,0.8,6.6,0c2.8-0.8,2.4-2.5,5.5-4.1s6.3-1.2,7.7-1c0.7,0.1,3.9,0.7,6.6,3c2.6,2.3,1.8,3.5,4.4,6.2
	c1.8,1.8,3,1.8,4.6,2.7c0,0,0.9,0.4,2,1.3c2.4,1.7,6.8,8.6,4.4,11.2c-0.7,0.7-1.7,1-12.2,0c-8.1-0.8-8.1-1-11.1-1
	c-4.6,0.1-5,0.7-11.1,1c-5.3,0.2-4.4-0.4-8.9,0c-5.3,0.4-8.1,1.2-12.2,0C1.6,32.3,1,31.5,0.7,31z"/>
<line class="st1" x1="8.5" y1="39.3" x2="8.5" y2="42.3"/>
<line class="st1" x1="26.6" y1="37.8" x2="26.6" y2="40.8"/>
<line class="st1" x1="22.6" y1="40" x2="22.6" y2="42.3"/>
<line class="st1" x1="15.3" y1="38.4" x2="15.3" y2="41.5"/>
<line class="st1" x1="30.2" y1="35" x2="30.2" y2="38"/>
<line class="st1" x1="35.5" y1="37.3" x2="35.5" y2="40.3"/>
<line class="st1" x1="42.4" y1="36.9" x2="42.4" y2="40"/>
<line class="st1" x1="45.8" y1="39.6" x2="45.8" y2="42.6"/>
<line class="st1" x1="50.4" y1="37.8" x2="50.4" y2="40.8"/>
<line class="st1" x1="5.9" y1="36.5" x2="5.9" y2="39.5"/>
<line class="st1" x1="54.4" y1="36.3" x2="54.4" y2="39.3"/>
</svg>
